<?xml version="1.0" encoding="UTF-8"?>
<svg version="1.1" xmlns="http://www.w3.org/2000/svg" width="917" height="272">
<path d="M0 0 C2.33738117 -0.01843599 4.67476314 -0.036772 7.012146 -0.05499268 C8.06230833 -0.07119471 9.11247066 -0.08739674 10.1944561 -0.10408974 C23.85359694 -0.18289471 23.85359694 -0.18289471 29.44915771 4.57928467 C33.09562852 8.99924928 32.65968939 12.73044005 32.65692139 18.25482178 C32.66028 19.20614487 32.66363861 20.15746796 32.667099 21.13761902 C32.67662674 24.29396863 32.67855299 27.45026531 32.67962646 30.60662842 C32.68283765 32.79376752 32.68620161 34.9809064 32.68971252 37.16804504 C32.69570827 41.75719704 32.69755195 46.3463302 32.69696045 50.93548584 C32.69685877 56.82493185 32.71051478 62.71425744 32.72773266 68.60367489 C32.73883379 73.12202005 32.74088024 77.64033591 32.74035072 82.15869331 C32.74153355 84.33047463 32.74597215 86.50225663 32.75368309 88.67402458 C32.76344542 91.707554 32.76061986 94.74081966 32.75457764 97.77435303 C32.76019714 98.67679749 32.76581665 99.57924194 32.77160645 100.5090332 C32.76741196 101.33485397 32.76321747 102.16067474 32.75889587 103.01152039 C32.75944064 103.72884307 32.75998541 104.44616575 32.76054668 105.18522549 C32.51165771 107.07928467 32.51165771 107.07928467 30.51165771 110.07928467 C24.8979283 109.84314309 21.97386382 106.16839095 18.19915771 102.45428467 C16.8536016 101.16308792 15.5072566 99.87271273 14.16009521 98.58319092 C13.52297607 97.96846924 12.88585693 97.35374756 12.22943115 96.72039795 C10.30886007 94.8855374 8.33929911 93.1220854 6.32415771 91.39178467 C2.98990272 88.52243668 -0.25314117 85.55921949 -3.48834229 82.57928467 C-7.45362712 78.92881234 -11.4554602 75.32974456 -15.52349854 71.79412842 C-17.71296954 69.88323822 -19.88529209 67.95475652 -22.05084229 66.01678467 C-22.88357666 65.27299561 -23.71631104 64.52920654 -24.57427979 63.76287842 C-26.83090159 61.68472939 -29.02978867 59.5783122 -31.21490479 57.42694092 C-31.86902344 56.7921582 -32.52314209 56.15737549 -33.19708252 55.50335693 C-34.49237625 54.24386157 -35.77630951 52.97255033 -37.04718018 51.68841553 C-40.0807989 48.75852411 -42.02229744 47.21914807 -46.13287354 45.98553467 C-51.60127818 46.13831897 -54.82303707 49.17577804 -58.62506104 52.87225342 C-59.73784424 53.94056396 -59.73784424 53.94056396 -60.87310791 55.03045654 C-62.42015182 56.5328868 -63.96702426 58.03549364 -65.51373291 59.53826904 C-66.25172119 60.24660889 -66.98970947 60.95494873 -67.75006104 61.68475342 C-68.4199707 62.33597168 -69.08988037 62.98718994 -69.78009033 63.65814209 C-71.48834229 65.07928467 -71.48834229 65.07928467 -73.48834229 65.07928467 C-73.98334229 66.56428467 -73.98334229 66.56428467 -74.48834229 68.07928467 C-75.87896729 69.48162842 -75.87896729 69.48162842 -77.73834229 71.01678467 C-81.58470859 74.27512735 -85.29790438 77.64735827 -88.98834229 81.07928467 C-96.56651945 88.09296719 -96.56651945 88.09296719 -100.11334229 91.26678467 C-100.70373291 91.79658936 -101.29412354 92.32639404 -101.90240479 92.87225342 C-103.48834229 94.07928467 -103.48834229 94.07928467 -106.48834229 95.07928467 C-106.48834229 95.73928467 -106.48834229 96.39928467 -106.48834229 97.07928467 C-107.94927979 98.58709717 -107.94927979 98.58709717 -109.86334229 100.20428467 C-110.48982666 100.74311279 -111.11631104 101.28194092 -111.76177979 101.83709717 C-113.48834229 103.07928467 -113.48834229 103.07928467 -115.48834229 103.07928467 C-115.71521729 103.65678467 -115.94209229 104.23428467 -116.17584229 104.82928467 C-117.48834229 107.07928467 -117.48834229 107.07928467 -120.05084229 108.95428467 C-122.76092712 110.92157337 -122.76092712 110.92157337 -123.36334229 114.26678467 C-123.40459229 115.19490967 -123.44584229 116.12303467 -123.48834229 117.07928467 C-121.21436457 119.35326238 -115.76553091 118.47174473 -112.68756104 118.60272217 C-109.19630493 119.12278718 -107.96587896 119.62807326 -105.48834229 122.07928467 C-104.94244385 124.60931396 -104.94244385 124.60931396 -104.87896729 127.65350342 C-104.84690186 128.78530029 -104.81483643 129.91709717 -104.78179932 131.08319092 C-104.7674585 132.29877686 -104.75311768 133.51436279 -104.73834229 134.76678467 C-104.69169434 136.63076904 -104.69169434 136.63076904 -104.644104 138.53240967 C-104.50611122 144.73341106 -104.47801318 150.92800856 -104.54302979 157.13006592 C-104.55302002 158.21908203 -104.56301025 159.30809814 -104.57330322 160.43011475 C-104.59951097 162.4914177 -104.64122503 164.55259604 -104.70025635 166.61322021 C-104.71540283 167.54045898 -104.73054932 168.46769775 -104.74615479 169.42303467 C-104.76822998 170.22934326 -104.79030518 171.03565186 -104.81304932 171.86639404 C-104.38956534 174.75245327 -103.56104043 176.03531922 -101.48834229 178.07928467 C-98.03724589 178.99287721 -94.8092754 179.19691583 -91.25115967 179.17262268 C-89.69927696 179.16601372 -89.69927696 179.16601372 -88.11604309 179.15927124 C-86.99173386 179.14939178 -85.86742462 179.13951233 -84.70904541 179.1293335 C-83.51665756 179.12305435 -82.32426971 179.11677521 -81.0957489 179.11030579 C-78.50829435 179.09646263 -75.92085033 179.0805286 -73.3334198 179.06275368 C-69.24026657 179.03485232 -65.1471137 179.01789102 -61.05389404 179.00328064 C-59.65081019 178.99813727 -58.24772639 178.99298065 -56.84464264 178.98781109 C-56.14219327 178.98522553 -55.4397439 178.98263997 -54.71600819 178.97997606 C-45.19129693 178.94396037 -35.6667029 178.89849304 -26.14215088 178.8324585 C-19.7102757 178.7879537 -13.27850236 178.75770435 -6.84648657 178.74360102 C-3.44523458 178.7355327 -0.04437268 178.72004056 3.35673523 178.6869297 C7.1487965 178.65326949 10.94016899 178.64430314 14.73236084 178.64105225 C15.85667007 178.6251001 16.98097931 178.60914795 18.13935852 178.5927124 C25.74966506 178.62252943 25.74966506 178.62252943 29.68536377 180.98167419 C33.30373835 185.13759906 32.79960295 189.0347722 32.88665771 194.32928467 C32.94273193 195.59965576 32.94273193 195.59965576 32.99993896 196.89569092 C33.06092756 201.25298698 32.92565651 204.16692502 30.11322021 207.62615967 C26.62523049 210.91513496 25.17040704 211.20401806 20.51130676 211.19281006 C18.92177185 211.19270432 18.92177185 211.19270432 17.30012512 211.19259644 C16.13122238 211.18743011 14.96231964 211.18226379 13.75799561 211.17694092 C12.52954926 211.17548065 11.30110291 211.17402039 10.03543091 211.17251587 C7.35140573 211.16869724 4.6674536 211.16305891 1.98344612 211.15444946 C-2.30895112 211.14084745 -6.60133811 211.13501133 -10.89375305 211.13031006 C-21.59538353 211.11733931 -32.29698642 211.0932004 -42.99859619 211.06890869 C-86.58250753 210.90877717 -86.58250753 210.90877717 -130.16287422 211.34274292 C-131.98028618 211.37495582 -133.79778463 211.40266453 -135.61533928 211.42544556 C-138.05216768 211.45808034 -140.4877941 211.50958126 -142.9241333 211.56756592 C-143.61419779 211.57396088 -144.30426228 211.58035583 -145.01523781 211.58694458 C-150.95191571 211.77039094 -154.83577036 213.614505 -159.23834229 217.51678467 C-163.8841231 222.80781281 -163.86977278 227.0345664 -163.73052979 233.94256592 C-163.43547674 237.76397869 -162.89012799 240.0576833 -160.48834229 243.07928467 C-150.65788329 250.3016627 -138.46769137 249.34137779 -126.82696533 249.22698975 C-125.15875205 249.21822648 -123.49053343 249.2104356 -121.8223114 249.20353699 C-118.24833833 249.18712749 -114.67447084 249.1647604 -111.10056114 249.13791847 C-105.44858789 249.09637377 -99.7966339 249.07360918 -94.14454651 249.05430603 C-78.07890669 248.99686179 -62.01344676 248.91899618 -45.94805908 248.81195068 C-37.06129133 248.75289841 -28.17462362 248.71172015 -19.28768378 248.69018286 C-13.66888748 248.67554528 -8.05081004 248.63875534 -2.43225229 248.58566058 C1.05879886 248.55793728 4.54965631 248.55114371 8.04080772 248.55033302 C9.65938499 248.54576214 11.27796426 248.53258507 12.89639282 248.5101738 C15.10618406 248.48080965 17.3139 248.48232603 19.52381897 248.49147034 C20.75986028 248.48426373 21.99590158 248.47705713 23.26939869 248.46963215 C27.43489157 249.25288334 28.94388695 250.77063301 31.51165771 254.07928467 C31.51165771 257.24053239 31.16612922 259.11082275 29.39264107 261.73516273 C26.48333251 263.81411013 23.95592226 263.45716869 20.41592407 263.4602356 C19.68875502 263.46491557 18.96158596 263.46959554 18.21238148 263.47441733 C15.76882472 263.48641011 13.32582439 263.47689344 10.88226318 263.46746826 C9.13289563 263.47153228 7.38353064 263.47687321 5.63417053 263.48339844 C0.87556748 263.49710406 -3.88284097 263.49175843 -8.64144754 263.48226118 C-13.62206459 263.47467417 -18.60266479 263.4817082 -23.58328247 263.48641968 C-31.95466098 263.49188307 -40.32596019 263.48467351 -48.69732666 263.47039795 C-58.36470076 263.45410228 -68.03188474 263.45933514 -77.69925416 263.47587717 C-86.00173856 263.48951362 -94.30416587 263.49140018 -102.60665786 263.48356116 C-107.56393601 263.47889239 -112.52112501 263.47823723 -117.47839737 263.48817062 C-122.14548642 263.49686826 -126.81233202 263.4907674 -131.47939491 263.47348785 C-133.18814885 263.46953654 -134.89692343 263.47063372 -136.60566902 263.47727585 C-150.32946333 263.52568232 -160.12614952 262.01483495 -170.40240479 252.26287842 C-182.11087944 239.93161256 -180.63990889 224.06448778 -180.6494751 208.18377686 C-180.65411093 206.38237915 -180.6591366 204.58098242 -180.66452026 202.77958679 C-180.67757034 197.9095599 -180.68407439 193.03954674 -180.68853092 188.16950512 C-180.69147291 185.12032833 -180.69557973 182.07115521 -180.7000351 179.02198029 C-180.71368895 169.4623961 -180.72336659 159.9028204 -180.72723699 150.34322715 C-180.73171628 139.34347478 -180.74926718 128.34384676 -180.77823758 117.34413218 C-180.79991092 108.81639123 -180.80994423 100.28868513 -180.8112781 91.76091695 C-180.81232184 86.67892867 -180.81813768 81.59705762 -180.83609772 76.51509857 C-180.85267711 71.73137903 -180.85468642 66.94786363 -180.84595871 62.16412544 C-180.84519366 60.4187547 -180.84945992 58.67337252 -180.85941696 56.92803001 C-180.95251185 39.57820159 -179.1668311 25.20834263 -166.63677979 12.14959717 C-156.20010514 2.46136931 -144.27034104 0.78516762 -130.50836182 0.76043701 C-129.22247162 0.75039139 -127.93658142 0.74034576 -126.61172485 0.72999573 C-123.0981807 0.70279247 -119.58467653 0.68756292 -116.07105494 0.6745677 C-112.36227648 0.65881221 -108.65357667 0.632038 -104.94485474 0.60653687 C-97.90001534 0.55977994 -90.85516029 0.52305796 -83.81024539 0.48986399 C-75.89430909 0.45203334 -67.9784618 0.40232202 -60.06259751 0.35187984 C-45.04365265 0.25683594 -30.02466008 0.1630881 -15.00549316 0.11218262 C-10.00328295 0.09471487 -5.00192889 0.05526988 0 0 Z " fill="#FEFEFE" transform="translate(183.48834228515625,2.92071533203125)"/>
<path d="M0 0 C0.90094391 -0.0033284 1.80188782 -0.0066568 2.73013306 -0.01008606 C4.64511606 -0.01515849 6.56010794 -0.01749429 8.47509766 -0.01733398 C11.3676681 -0.01949656 14.25984206 -0.0375817 17.15234375 -0.05664062 C32.93799259 -0.10559698 48.12163725 -0.0987147 60.3125 11.2421875 C64.4341016 15.83935851 66.51640828 21.02678169 67.0390625 27.16796875 C67.1421875 28.24046875 67.2453125 29.31296875 67.3515625 30.41796875 C66.74345907 37.71520992 64.44343485 43.33446087 58.9140625 48.23046875 C56.980962 49.78059651 55.25332596 51.06083702 53.0390625 52.16796875 C54.2146875 52.66296875 55.3903125 53.15796875 56.6015625 53.66796875 C62.47174875 56.65510253 66.561334 60.72501369 69.17578125 66.81640625 C72.35088734 77.07444131 70.33660777 84.59343766 66.0390625 94.16796875 C65.3790625 94.16796875 64.7190625 94.16796875 64.0390625 94.16796875 C63.79929687 94.76480469 63.55953125 95.36164063 63.3125 95.9765625 C61.76247344 98.64393949 60.2935721 99.63489254 57.6640625 101.23046875 C56.50777344 101.95943359 56.50777344 101.95943359 55.328125 102.703125 C34.68551808 111.89668509 10.51744337 107.16796875 -10.9609375 107.16796875 C-10.9609375 72.18796875 -10.9609375 37.20796875 -10.9609375 1.16796875 C-7.57402747 -0.52548627 -3.72589317 0.00476181 0 0 Z M11.0390625 20.16796875 C11.0390625 27.75796875 11.0390625 35.34796875 11.0390625 43.16796875 C16.53422461 44.26700117 21.46652905 44.32871491 27.0390625 44.16796875 C27.85375 44.15121094 28.6684375 44.13445312 29.5078125 44.1171875 C35.39482727 43.76436983 38.59441469 42.05703558 43.0390625 38.16796875 C44.25668981 34.51508682 44.42982101 32.01042739 44.0390625 28.16796875 C40.94316423 23.34200968 38.54787985 21.47814102 33.0390625 20.16796875 C29.24201392 19.93752467 25.46619987 19.9796838 21.6640625 20.04296875 C18.1578125 20.08421875 14.6515625 20.12546875 11.0390625 20.16796875 Z M11.0390625 63.16796875 C11.0390625 71.41796875 11.0390625 79.66796875 11.0390625 88.16796875 C17.1646875 88.35359375 17.1646875 88.35359375 23.4140625 88.54296875 C24.68040527 88.59759277 25.94674805 88.6522168 27.25146484 88.70849609 C35.07068307 88.82217239 41.14078842 87.60724209 47.0390625 82.16796875 C48.58107857 79.08654358 49.18117104 76.61564549 49.0390625 73.16796875 C47.62051165 68.9123162 45.89831769 66.45940152 42.0390625 64.16796875 C33.46262426 61.309156 19.68603722 60.28564384 11.0390625 63.16796875 Z " fill="#FCFCFC" transform="translate(270.9609375,79.83203125)"/>
<path d="M0 0 C7.26 0 14.52 0 22 0 C22.33 19.14 22.66 38.28 23 58 C24.98 55.69 26.96 53.38 29 51 C30.65653523 49.32326312 32.32261555 47.65587952 34 46 C35.67707396 44.17618207 37.34366492 42.34267278 39 40.5 C40.65633508 38.65732722 42.32292604 36.82381793 44 35 C44.67417969 34.06800781 45.34835937 33.13601562 46.04296875 32.17578125 C50.77039137 28.69734743 55.61697014 29.47112978 61.3125 29.6875 C62.43462891 29.71005859 63.55675781 29.73261719 64.71289062 29.75585938 C67.47662536 29.81466224 70.23762554 29.89679599 73 30 C73.495 30.99 73.495 30.99 74 32 C73.34 32 72.68 32 72 32 C71.731875 32.763125 71.46375 33.52625 71.1875 34.3125 C70.04865495 36.88988618 69.18583329 38.26954864 67 40 C66.34 40 65.68 40 65 40 C64.76539063 40.55429688 64.53078125 41.10859375 64.2890625 41.6796875 C62.67545708 44.58417725 60.65276205 46.70620005 58.375 49.125 C53.65319113 54.22427905 49.26399604 59.5092118 45 65 C48.0531132 71.1062264 52.25257541 76.0734139 56.66015625 81.23046875 C62 87.5509182 62 87.5509182 62 90 C62.66 90 63.32 90 64 90 C65.56246919 91.88563644 67.00977577 93.76640899 68.4375 95.75 C68.83259766 96.28882813 69.22769531 96.82765625 69.63476562 97.3828125 C70.7605968 98.91888832 71.88043513 100.45935102 73 102 C73.58910156 102.74765625 74.17820312 103.4953125 74.78515625 104.265625 C76 106 76 106 76 108 C71.83483453 108.29249758 67.6723194 108.4686497 63.5 108.625 C62.32695313 108.70878906 61.15390625 108.79257813 59.9453125 108.87890625 C51.33901742 109.12065611 51.33901742 109.12065611 47.37109375 105.79980469 C42 99.2185571 42 99.2185571 42 96 C41.34 96 40.68 96 40 96 C38.17308287 93.84770057 36.45005775 91.68677212 34.75 89.4375 C30.97249935 84.49326438 27.09662022 79.68481129 23 75 C22.97494385 75.96413818 22.9498877 76.92827637 22.92407227 77.92163086 C22.83014694 81.48687842 22.72989061 85.05192433 22.62768555 88.61694336 C22.58428015 90.16214289 22.54260929 91.70739214 22.50268555 93.25268555 C22.44511801 95.46939096 22.38138576 97.6858448 22.31640625 99.90234375 C22.29133751 100.94454323 22.29133751 100.94454323 22.26576233 102.00779724 C22.11387171 106.88612829 22.11387171 106.88612829 21 108 C19.43827255 108.08685603 17.87270656 108.10702219 16.30859375 108.09765625 C15.36435547 108.09443359 14.42011719 108.09121094 13.44726562 108.08789062 C12.45404297 108.07951172 11.46082031 108.07113281 10.4375 108.0625 C9.44041016 108.05798828 8.44332031 108.05347656 7.41601562 108.04882812 C4.94395151 108.03700007 2.47200482 108.02051849 0 108 C-0.87950921 101.96350252 -1.14317439 96.11510107 -1.12939453 90.01977539 C-1.13114685 89.05460999 -1.13289917 88.08944458 -1.13470459 87.09503174 C-1.1390791 83.92922122 -1.13620231 80.76346726 -1.1328125 77.59765625 C-1.13348642 75.3918812 -1.13445718 73.18610622 -1.13571167 70.98033142 C-1.13718234 66.37156462 -1.13505292 61.76281727 -1.13037109 57.15405273 C-1.12465069 51.23322805 -1.12797135 45.31244847 -1.13394356 39.3916254 C-1.13754622 34.84420935 -1.13641236 30.29680411 -1.13381577 25.74938774 C-1.13314689 23.56479321 -1.13397355 21.38019772 -1.13629532 19.19560432 C-1.13881952 16.15519707 -1.13498563 13.11486454 -1.12939453 10.07446289 C-1.13141876 9.16490341 -1.13344299 8.25534393 -1.13552856 7.31822205 C-1.11426732 1.11426732 -1.11426732 1.11426732 0 0 Z " fill="#FDFCFC" transform="translate(535,79)"/>
<path d="M0 0 C1.92514488 1.72012945 2.14404326 2.80961807 2.50390625 5.34375 C1.28199413 7.89734413 0.04025042 10.19662162 -1.43359375 12.59375 C-2.01270508 13.56828125 -2.01270508 13.56828125 -2.60351562 14.5625 C-3.55667793 16.16287129 -4.52495299 17.7542242 -5.49609375 19.34375 C-6.80859375 18.90625 -8.12109375 18.46875 -9.43359375 18.03125 C-10.26117187 17.76054688 -11.08875 17.48984375 -11.94140625 17.2109375 C-13.5329012 16.67070527 -15.11414767 16.09785758 -16.67578125 15.4765625 C-24.04706 12.64145529 -31.50995923 12.17540023 -39.12109375 14.40625 C-42.443337 17.11650107 -42.99515667 19.12156608 -43.49609375 23.34375 C-41.88773699 28.26342949 -39.94705349 29.96415102 -35.49609375 32.34375 C-33.15858715 33.3420317 -30.80237827 34.29714088 -28.43359375 35.21875 C-27.09879745 35.74568641 -25.76416414 36.27303583 -24.4296875 36.80078125 C-21.98606568 37.76096688 -19.5404753 38.71568416 -17.09375 39.66796875 C-6.33525915 43.96865172 -0.81519736 47.81263882 4.50390625 58.34375 C7.15955514 66.31069667 6.30651696 75.62151991 2.7578125 83.1640625 C-1.29358507 90.20667884 -6.18687111 93.9218764 -13.49609375 97.34375 C-14.11097656 97.653125 -14.72585938 97.9625 -15.359375 98.28125 C-28.03193076 103.92555749 -43.83524402 101.60067433 -56.43359375 97.03125 C-61.3556537 95.00947477 -65.37622097 92.69713482 -69.49609375 89.34375 C-68.91344103 84.92051318 -67.22843164 81.8281636 -64.93359375 78.03125 C-63.97259766 76.42830078 -63.97259766 76.42830078 -62.9921875 74.79296875 C-62.49847656 73.98472656 -62.00476563 73.17648438 -61.49609375 72.34375 C-57.71210045 73.51809275 -54.42044145 74.86630978 -50.99609375 76.84375 C-43.77745895 80.51849309 -34.98612809 82.36435694 -26.93359375 80.78125 C-22.93845059 79.11055377 -20.9446279 77.94003453 -18.49609375 74.34375 C-17.83541549 70.44922554 -18.00334124 66.96953822 -19.1484375 63.19140625 C-21.10301787 60.51164823 -23.36291049 60.31935337 -26.49609375 59.34375 C-30.64290934 57.81578881 -34.75611621 56.20520974 -38.87109375 54.59375 C-40.51851562 53.96726562 -40.51851562 53.96726562 -42.19921875 53.328125 C-48.52136278 50.84171824 -54.6461231 48.25717821 -59.49609375 43.34375 C-59.49609375 42.68375 -59.49609375 42.02375 -59.49609375 41.34375 C-60.15609375 41.34375 -60.81609375 41.34375 -61.49609375 41.34375 C-64.02202674 36.71483095 -66.06051767 32.67955696 -66.49609375 27.34375 C-66.55925781 26.68890625 -66.62242187 26.0340625 -66.6875 25.359375 C-67.14677838 17.00347162 -64.51727387 9.39571203 -59.24609375 2.90625 C-44.18792521 -12.72617073 -17.44120131 -9.79619656 0 0 Z " fill="#FCFCFC" transform="translate(684.49609375,87.65625)"/>
<path d="M0 0 C3.60389664 -0.11601004 7.20731467 -0.18718408 10.8125 -0.25 C11.83666016 -0.28351563 12.86082031 -0.31703125 13.91601562 -0.3515625 C14.89892578 -0.36445312 15.88183594 -0.37734375 16.89453125 -0.390625 C17.80050049 -0.41157227 18.70646973 -0.43251953 19.63989258 -0.45410156 C22 0 22 0 23.64550781 1.52978516 C25.46851625 4.85444257 26.63046192 8.31648774 27.77734375 11.9140625 C28.02996475 12.68374359 28.28258575 13.45342468 28.54286194 14.24642944 C29.34824941 16.70367908 30.14346932 19.16405948 30.9375 21.625 C31.98392971 24.84778596 33.03491432 28.06904903 34.08984375 31.2890625 C34.34108002 32.05704163 34.59231628 32.82502075 34.85116577 33.61627197 C36.68431528 39.16931959 38.69186926 44.62429455 41 50 C41.33733154 48.97753174 41.67466309 47.95506348 42.0222168 46.90161133 C43.29571616 43.04443077 44.57342416 39.18865457 45.85229492 35.33325195 C46.40126409 33.67639527 46.94914828 32.01917863 47.49584961 30.36157227 C56.77989621 2.22010379 56.77989621 2.22010379 59 0 C60.56172745 -0.08685603 62.12729344 -0.10702219 63.69140625 -0.09765625 C64.63564453 -0.09443359 65.57988281 -0.09121094 66.55273438 -0.08789062 C67.54595703 -0.07951172 68.53917969 -0.07113281 69.5625 -0.0625 C70.55958984 -0.05798828 71.55667969 -0.05347656 72.58398438 -0.04882812 C75.05604849 -0.03700007 77.52799518 -0.02051849 80 0 C81 2 81 2 80.36328125 4.50390625 C78.48018264 9.98519329 76.47906309 15.30028941 74.0546875 20.5625 C72.2977458 24.62298749 70.88811881 28.80410326 69.421875 32.9765625 C65.84546167 43.14730814 62.16457521 53.30110649 58.09375 63.28515625 C56.52619778 67.17604478 55.01674576 71.08908177 53.5 75 C52.88807338 76.57033298 52.27609552 78.14064599 51.6640625 79.7109375 C50.70686773 82.16969813 49.76310066 84.63120161 48.8359375 87.1015625 C46.83225944 92.36325366 44.60491412 97.61034267 41 102 C40.34 102 39.68 102 39 102 C39 102.66 39 103.32 39 104 C31.94091982 110.61788766 24.0494781 113.29066357 14.55078125 113.234375 C10.8698308 112.89615597 8.26125737 111.70152558 5 110 C5.4452885 104.72684667 6.08373163 99.98229776 8 95 C8.65226563 94.98582031 9.30453125 94.97164063 9.9765625 94.95703125 C14.52980103 94.70855068 17.42215627 94.35312672 21.375 91.9375 C25.61089529 87.19733146 28.01134121 83.72756102 27.984375 77.2421875 C26.97366155 69.77469073 23.64458036 62.80288406 20.8125 55.875 C20.24050779 54.4535385 19.66953767 53.03166527 19.09960938 51.609375 C17.96694901 48.78746411 16.82780193 45.96831733 15.68286133 43.15136719 C14.04156001 39.11056723 12.42584411 35.05983582 10.8125 31.0078125 C9.21621182 27.01009194 7.6052211 23.02269751 5.91796875 19.0625 C5.62599609 18.37542969 5.33402344 17.68835938 5.03320312 16.98046875 C4.45509813 15.62666168 3.87150417 14.27518884 3.28320312 12.92578125 C1.44905481 8.57847711 0.47122158 4.69997627 0 0 Z " fill="#FCFCFC" transform="translate(832,109)"/>
<path d="M0 0 C9.43667997 7.47995662 13.94789407 16.18384671 15.71484375 28.0625 C16.78617796 40.03796185 13.49720201 49.82427205 8 60.25 C7.34 60.25 6.68 60.25 6 60.25 C5.74089844 60.848125 5.48179687 61.44625 5.21484375 62.0625 C1.763634 68.27689698 -5.54427707 71.35983387 -12.015625 73.49609375 C-25.03413369 76.78480079 -37.44059696 75.37562049 -49.234375 69.015625 C-56.24398229 64.54056498 -61.02434034 58.99821524 -64 51.25 C-64.29777344 50.52425781 -64.59554688 49.79851562 -64.90234375 49.05078125 C-69.09082337 37.37322286 -68.04558297 24.47567572 -63 13.25 C-56.81057824 2.73118995 -47.59565861 -3.48213257 -36 -6.75 C-23.43764359 -9.65200171 -10.64397932 -7.34665964 0 0 Z M-40.3125 18.75 C-45.34138128 26.20019449 -45.03293145 34.4669652 -44 43.25 C-42.11316707 49.09675269 -38.39370583 52.38100754 -33 55.25 C-27.90197582 57.28920967 -22.39717687 56.69993831 -17.3125 55.0625 C-11.7225072 52.0038247 -9.04506227 49.19654827 -7.125 43.125 C-5.18235574 34.93498839 -5.67272687 26.60636432 -10 19.25 C-14.67025573 14.36947209 -18.38744925 12.11960679 -25.25 11.9375 C-31.9946225 12.00877738 -35.66168146 13.72208806 -40.3125 18.75 Z " fill="#FCFCFC" transform="translate(417,113.75)"/>
<path d="M0 0 C8.6768835 5.91172283 13.89460668 13.63055016 16.48828125 23.6953125 C16.67777344 24.30246094 16.86726562 24.90960938 17.0625 25.53515625 C19.279957 36.7851904 17.8079854 48.62724391 11.80078125 58.3828125 C5.0773717 67.74933146 -3.9849841 73.81441733 -15.32421875 76.0703125 C-27.84766181 77.74010491 -39.93651461 75.98210379 -50.32421875 68.5078125 C-59.3786595 60.89238108 -64.08803415 50.27619164 -65.38671875 38.6328125 C-65.94425368 28.09404241 -62.95828663 16.21399148 -56.51171875 7.6953125 C-40.62259942 -7.81219043 -19.54729164 -10.41275185 0 0 Z M-38.82421875 20.1328125 C-43.63854236 27.44345206 -43.19455799 35.27362855 -42.51171875 43.6953125 C-41.06721013 49.0595148 -38.2127819 52.7141505 -33.51171875 55.6953125 C-29.03189332 58.18410441 -24.51041461 58.23640844 -19.51171875 57.6953125 C-12.45469367 55.57820498 -9.31963525 51.81240991 -5.69921875 45.5703125 C-3.14833509 38.94387909 -3.52811448 31.26184282 -6.19921875 24.7578125 C-8.79563833 19.69341812 -12.17472012 15.85845 -17.51171875 13.6953125 C-26.42434032 12.61423287 -32.52033944 13.48818296 -38.82421875 20.1328125 Z " fill="#FDFCFC" transform="translate(506.51171875,112.3046875)"/>
<path d="M0 0 C6.49706502 5.49322665 9.01861476 12.58185 9.74951172 20.83618164 C9.83577944 22.19384227 9.91634015 23.55187362 9.9921875 24.91015625 C10.03423309 25.64871353 10.07627869 26.38727081 10.11959839 27.14820862 C10.53909981 35.19500382 10.58889893 43.23712413 10.56787109 51.29321289 C10.56238992 53.80035126 10.56792124 56.30731931 10.57421875 58.81445312 C10.57355982 60.41666706 10.57228251 62.01888089 10.5703125 63.62109375 C10.57233673 64.36677109 10.57436096 65.11244843 10.57644653 65.88072205 C10.55253591 71.08242818 10.55253591 71.08242818 9.4375 73.3125 C6.49847651 73.44731759 3.56560441 73.54649416 0.625 73.625 C-0.20837891 73.66689453 -1.04175781 73.70878906 -1.90039062 73.75195312 C-4.22395599 73.79861106 -6.28820306 73.79743084 -8.5625 73.3125 C-10.63671875 70.79296875 -10.63671875 70.79296875 -11.5625 68.3125 C-13.5537742 69.29928699 -15.53369577 70.29704834 -17.4921875 71.34765625 C-26.89151239 76.31155675 -35.88471378 76.28104091 -45.9453125 73.28515625 C-52.90553791 70.69844561 -56.42397739 66.95168245 -59.5625 60.3125 C-61.91262756 52.61974912 -60.84013084 45.49807531 -57.5625 38.3125 C-56.9025 37.3225 -56.2425 36.3325 -55.5625 35.3125 C-54.9025 35.3125 -54.2425 35.3125 -53.5625 35.3125 C-53.2325 34.3225 -52.9025 33.3325 -52.5625 32.3125 C-43.62576299 26.2938812 -35.0739431 26.03097221 -24.5625 26.1875 C-22.82806641 26.20103516 -22.82806641 26.20103516 -21.05859375 26.21484375 C-18.22634353 26.23825078 -15.39453381 26.27104005 -12.5625 26.3125 C-12.85382812 25.04277344 -13.14515625 23.77304688 -13.4453125 22.46484375 C-13.60918457 21.75062256 -13.77305664 21.03640137 -13.94189453 20.30053711 C-14.82859551 17.46009413 -16.18894714 16.05775945 -18.5625 14.3125 C-27.18274323 11.47108352 -36.27487851 13.00381041 -44.41796875 16.4375 C-46.5625 17.3125 -46.5625 17.3125 -48.5625 17.3125 C-49.59794174 15.40368566 -50.61540085 13.48510796 -51.625 11.5625 C-52.19347656 10.49515625 -52.76195312 9.4278125 -53.34765625 8.328125 C-54.5625 5.3125 -54.5625 5.3125 -54.484375 3.08203125 C-52.15921756 -1.38108875 -46.27979014 -3.07798294 -41.7890625 -4.671875 C-28.06463297 -8.57211503 -12.17653223 -8.20145417 0 0 Z M-37.5625 44.3125 C-38.82604989 47.29805593 -38.92821336 50.10547513 -38.5625 53.3125 C-35.9939636 57.28958863 -34.27969748 58.13898448 -29.6875 59.25 C-24.1856524 59.59192273 -20.05439288 58.53916748 -15.75 55 C-13.59797316 52.35608132 -12.36675717 50.60995442 -11.5625 47.3125 C-11.85514545 45.30614267 -12.18437301 43.30451684 -12.5625 41.3125 C-15.79149426 41.2249873 -19.02018116 41.17193854 -22.25 41.125 C-23.16201172 41.09986328 -24.07402344 41.07472656 -25.01367188 41.04882812 C-31.83203848 40.91079769 -31.83203848 40.91079769 -37.5625 44.3125 Z " fill="#FDFCFC" transform="translate(818.5625,113.6875)"/>
<path d="M0 0 C0.79792969 -0.00128906 1.59585938 -0.00257812 2.41796875 -0.00390625 C3.24683594 -0.00003906 4.07570313 0.00382812 4.9296875 0.0078125 C6.18458984 0.00201172 6.18458984 0.00201172 7.46484375 -0.00390625 C13.67803876 0.00616376 13.67803876 0.00616376 14.8046875 1.1328125 C14.89100624 2.47548663 14.91175223 3.82255572 14.90234375 5.16796875 C14.89912109 5.97685547 14.89589844 6.78574219 14.89257812 7.61914062 C14.88000977 8.8943457 14.88000977 8.8943457 14.8671875 10.1953125 C14.86267578 11.04931641 14.85816406 11.90332031 14.85351562 12.78320312 C14.84169123 14.89976913 14.82375519 17.01629935 14.8046875 19.1328125 C15.40531006 19.12757568 16.00593262 19.12233887 16.62475586 19.11694336 C19.33055588 19.09623236 22.03633927 19.08317125 24.7421875 19.0703125 C25.68771484 19.06193359 26.63324219 19.05355469 27.60742188 19.04492188 C28.95610352 19.04008789 28.95610352 19.04008789 30.33203125 19.03515625 C31.58101196 19.02730103 31.58101196 19.02730103 32.85522461 19.01928711 C34.8046875 19.1328125 34.8046875 19.1328125 35.8046875 20.1328125 C35.87788371 22.82936104 35.89711287 25.49972708 35.8671875 28.1953125 C35.86267578 28.95392578 35.85816406 29.71253906 35.85351562 30.49414062 C35.8416943 32.37373121 35.82375828 34.25328149 35.8046875 36.1328125 C33.09752508 37.03519997 31.56691982 37.25132552 28.79296875 37.23046875 C27.65698242 37.22563477 27.65698242 37.22563477 26.49804688 37.22070312 C25.31952148 37.20813477 25.31952148 37.20813477 24.1171875 37.1953125 C22.92125977 37.18854492 22.92125977 37.18854492 21.70117188 37.18164062 C19.73564493 37.169871 17.77015665 37.15193598 15.8046875 37.1328125 C15.77998054 42.48966128 15.76182419 47.84647694 15.74975586 53.20336914 C15.7447251 55.02596616 15.73789981 56.84855915 15.72924805 58.67114258 C15.71712753 61.28988644 15.71144664 63.90857697 15.70703125 66.52734375 C15.70186996 67.34306351 15.69670868 68.15878326 15.69139099 68.9992218 C15.6910629 72.30295179 15.75243129 74.97604388 16.8046875 78.1328125 C23.38318242 79.08775531 29.22285388 79.0259632 35.8046875 78.1328125 C36.65767126 81.80668745 36.91258221 85.1775518 36.8671875 88.9453125 C36.85816406 89.92113281 36.84914063 90.89695312 36.83984375 91.90234375 C36.82824219 92.63839844 36.81664062 93.37445313 36.8046875 94.1328125 C26.96217166 99.24426396 17.52036879 100.52246679 6.8046875 97.1328125 C0.7929328 94.32916543 -2.92819072 91.09314001 -5.5390625 84.96484375 C-7.04638741 80.75689505 -7.5212543 76.94072849 -7.7578125 72.5078125 C-7.800271 71.74033691 -7.84272949 70.97286133 -7.88647461 70.18212891 C-8.42356831 59.17440975 -8.27540366 48.14979646 -8.1953125 37.1328125 C-11.8253125 36.8028125 -15.4553125 36.4728125 -19.1953125 36.1328125 C-19.1953125 30.8528125 -19.1953125 25.5728125 -19.1953125 20.1328125 C-16.44452366 19.21588289 -14.83582337 19.02395167 -12.0078125 19.0703125 C-10.120625 19.10125 -10.120625 19.10125 -8.1953125 19.1328125 C-8.20691406 18.08480469 -8.21851563 17.03679687 -8.23046875 15.95703125 C-8.23984905 14.57812678 -8.248949 13.19922039 -8.2578125 11.8203125 C-8.26619141 11.13001953 -8.27457031 10.43972656 -8.28320312 9.72851562 C-8.29839156 6.58451 -8.19724577 4.13861231 -7.1953125 1.1328125 C-4.45628524 0.21980341 -2.8208298 0.00434642 0 0 Z " fill="#FCFCFC" transform="translate(714.1953125,89.8671875)"/>
<path d="M0 0 C3.63811217 0.00258854 7.27622223 0.00016882 10.91433454 -0.00138617 C17.00808416 -0.00318776 23.10182153 -0.00085341 29.19556928 0.00395441 C36.19055221 0.00941034 43.18550604 0.00761656 50.18048829 0.00212801 C56.25167848 -0.00244053 62.32286002 -0.00303603 68.39405137 -0.00043333 C71.99196755 0.00110684 75.58987014 0.00138629 79.18778539 -0.00196981 C104.68187253 -0.02206063 104.68187253 -0.02206063 115.26344037 0.45512629 C116.53458188 0.51193567 117.80572339 0.56874506 119.11538434 0.62727594 C122.24701877 1.16508939 123.24499798 1.59267352 125.06788373 4.1343255 C125.94288373 6.0093255 125.94288373 6.0093255 126.06788373 8.1343255 C123.80634527 12.76509474 123.80634527 12.76509474 121.06788373 14.1343255 C118.89440199 14.24504065 116.71748172 14.28984887 114.54124188 14.30600214 C113.86322432 14.31235125 113.18520675 14.31870036 112.4866432 14.32524186 C110.2036768 14.34535958 107.92072506 14.3583632 105.63770795 14.37138605 C104.00509065 14.38423469 102.3724765 14.39748896 100.73986554 14.41111994 C96.29539948 14.44679152 91.85091319 14.47599534 87.40638995 14.50351167 C84.62933218 14.52100167 81.85228746 14.53988012 79.07524228 14.5592618 C69.38564234 14.62686427 59.69602465 14.68926148 50.00636029 14.74687433 C40.97801232 14.80069064 31.94979372 14.86579191 22.92156136 14.93621272 C15.17033342 14.99617305 7.41907826 15.04821393 -0.33224547 15.09413987 C-4.96144399 15.1217015 -9.59056735 15.15244349 -14.21968722 15.19115496 C-18.57803854 15.22732801 -22.93634079 15.25361719 -27.29480052 15.2724328 C-28.89112193 15.28098042 -30.48742927 15.29299911 -32.08369517 15.30881929 C-47.44885481 15.45721644 -47.44885481 15.45721644 -53.93211627 13.1343255 C-55.79357953 10.8850574 -55.8935067 9.45092399 -56.24461627 6.5718255 C-55.86404816 3.60339428 -55.25331426 2.9548801 -52.93211627 1.1343255 C-50.88128829 0.70406008 -50.88128829 0.70406008 -48.48105121 0.62727594 C-47.11304921 0.57500754 -47.11304921 0.57500754 -45.7174108 0.52168322 C-44.7169721 0.49971943 -43.7165334 0.47775564 -42.68577838 0.45512629 C-41.62572306 0.4220393 -40.56566773 0.38895231 -39.47348952 0.35486269 C-26.31907966 -0.01261943 -13.15850111 -0.01235482 0 0 Z " fill="#FEFEFD" transform="translate(87.93211627006531,225.86567449569702)"/>
<path d="M0 0 C1.09924805 0.00483398 1.09924805 0.00483398 2.22070312 0.00976562 C2.94966797 -0.00634766 3.67863281 -0.02246094 4.4296875 -0.0390625 C7.30781848 -0.04170057 9.70352252 0.0335444 12.30664062 1.33007812 C13.92071023 4.62278012 13.32016854 7.96872227 12.97070312 11.50976562 C12.87885742 12.63415039 12.87885742 12.63415039 12.78515625 13.78125 C12.63211701 15.62949307 12.45953433 17.47609912 12.28320312 19.32226562 C9.32432854 19.4029622 6.36763722 19.46261227 3.40820312 19.50976562 C2.56644531 19.53490234 1.7246875 19.56003906 0.85742188 19.5859375 C0.05175781 19.59560547 -0.75390625 19.60527344 -1.58398438 19.61523438 C-2.69942627 19.63880005 -2.69942627 19.63880005 -3.83740234 19.6628418 C-4.45760254 19.55045166 -5.07780273 19.43806152 -5.71679688 19.32226562 C-8.17742666 15.63132094 -7.98496464 13.65182368 -7.96679688 9.25976562 C-7.97195312 8.01066406 -7.97710937 6.7615625 -7.98242188 5.47460938 C-7.51466922 -0.0765141 -5.01791493 0.05068601 0 0 Z " fill="#FCFBFB" transform="translate(120.716796875,101.677734375)"/>
<path d="M0 0 C0.27613568 2.75541841 0.37257625 5.25091102 0.3125 8 C0.31733398 9.10601562 0.31733398 9.10601562 0.32226562 10.234375 C0.26707949 15.73292051 0.26707949 15.73292051 -2 18 C-4.64453125 18.23046875 -4.64453125 18.23046875 -7.8125 18.1875 C-8.85019531 18.18105469 -9.88789063 18.17460937 -10.95703125 18.16796875 C-13.7654559 18.01294659 -16.29305943 17.76299761 -19 17 C-20.41880263 14.16239474 -20.1320472 11.72317025 -20.125 8.5625 C-20.12757813 7.40878906 -20.13015625 6.25507813 -20.1328125 5.06640625 C-20 2 -20 2 -19 -1 C-4.3 -2.86666667 -4.3 -2.86666667 0 0 Z " fill="#FBFAFA" transform="translate(158,128)"/>
<path d="M0 0 C0.02690844 2.62506802 0.04679404 5.24986173 0.0625 7.875 C0.07087891 8.62136719 0.07925781 9.36773437 0.08789062 10.13671875 C0.11328125 15.7734375 0.11328125 15.7734375 -1 18 C-6.47920547 19.33639158 -13.65255762 20.13897695 -19 18 C-20.48619895 15.02760209 -20.13177009 12.30380422 -20.125 9 C-20.12757812 7.741875 -20.13015625 6.48375 -20.1328125 5.1875 C-20 2 -20 2 -19 0 C-12.66183515 -1.54589387 -6.34784627 -1.3861848 0 0 Z " fill="#FAFAFA" transform="translate(133,127)"/>
<path d="M0 0 C2.75541841 -0.27613568 5.25091102 -0.37257625 8 -0.3125 C9.10601562 -0.31733398 9.10601562 -0.31733398 10.234375 -0.32226562 C15.73292051 -0.26707949 15.73292051 -0.26707949 18 2 C18.17170903 4.72697223 18.2324568 7.33906468 18.1875 10.0625 C18.18685547 10.80822266 18.18621094 11.55394531 18.18554688 12.32226562 C18.14028159 17.85971841 18.14028159 17.85971841 17 19 C14.15664952 19.09986975 11.34302837 19.13877881 8.5 19.125 C7.70207031 19.12886719 6.90414062 19.13273437 6.08203125 19.13671875 C0.12660767 19.12660767 0.12660767 19.12660767 -1 18 C-3.24056999 4.86085499 -3.24056999 4.86085499 0 0 Z " fill="#FCFCFC" transform="translate(140,102)"/>
<path d="" fill="#000000" transform="translate(0,0)"/>
<path d="" fill="#000000" transform="translate(0,0)"/>
<path d="" fill="#000000" transform="translate(0,0)"/>
<path d="" fill="#000000" transform="translate(0,0)"/>
<path d="" fill="#000000" transform="translate(0,0)"/>
<path d="" fill="#000000" transform="translate(0,0)"/>
<path d="" fill="#000000" transform="translate(0,0)"/>
<path d="" fill="#000000" transform="translate(0,0)"/>
<path d="" fill="#000000" transform="translate(0,0)"/>
<path d="" fill="#000000" transform="translate(0,0)"/>
<path d="" fill="#000000" transform="translate(0,0)"/>
<path d="" fill="#000000" transform="translate(0,0)"/>
<path d="" fill="#000000" transform="translate(0,0)"/>
<path d="" fill="#000000" transform="translate(0,0)"/>
<path d="" fill="#000000" transform="translate(0,0)"/>
<path d="" fill="#000000" transform="translate(0,0)"/>
<path d="" fill="#000000" transform="translate(0,0)"/>
<path d="" fill="#000000" transform="translate(0,0)"/>
<path d="" fill="#000000" transform="translate(0,0)"/>
<path d="" fill="#000000" transform="translate(0,0)"/>
<path d="" fill="#000000" transform="translate(0,0)"/>
<path d="" fill="#000000" transform="translate(0,0)"/>
<path d="" fill="#000000" transform="translate(0,0)"/>
<path d="" fill="#000000" transform="translate(0,0)"/>
<path d="" fill="#000000" transform="translate(0,0)"/>
<path d="" fill="#000000" transform="translate(0,0)"/>
<path d="" fill="#000000" transform="translate(0,0)"/>
<path d="" fill="#000000" transform="translate(0,0)"/>
<path d="" fill="#000000" transform="translate(0,0)"/>
<path d="" fill="#000000" transform="translate(0,0)"/>
<path d="" fill="#000000" transform="translate(0,0)"/>
<path d="" fill="#000000" transform="translate(0,0)"/>
<path d="" fill="#000000" transform="translate(0,0)"/>
<path d="" fill="#000000" transform="translate(0,0)"/>
<path d="" fill="#000000" transform="translate(0,0)"/>
<path d="" fill="#000000" transform="translate(0,0)"/>
<path d="" fill="#000000" transform="translate(0,0)"/>
<path d="" fill="#000000" transform="translate(0,0)"/>
<path d="" fill="#000000" transform="translate(0,0)"/>
<path d="" fill="#000000" transform="translate(0,0)"/>
<path d="" fill="#000000" transform="translate(0,0)"/>
<path d="" fill="#000000" transform="translate(0,0)"/>
<path d="" fill="#000000" transform="translate(0,0)"/>
<path d="" fill="#000000" transform="translate(0,0)"/>
<path d="" fill="#000000" transform="translate(0,0)"/>
<path d="" fill="#000000" transform="translate(0,0)"/>
<path d="" fill="#000000" transform="translate(0,0)"/>
<path d="" fill="#000000" transform="translate(0,0)"/>
<path d="" fill="#000000" transform="translate(0,0)"/>
<path d="" fill="#000000" transform="translate(0,0)"/>
<path d="" fill="#000000" transform="translate(0,0)"/>
<path d="" fill="#000000" transform="translate(0,0)"/>
<path d="" fill="#000000" transform="translate(0,0)"/>
<path d="" fill="#000000" transform="translate(0,0)"/>
<path d="" fill="#000000" transform="translate(0,0)"/>
<path d="" fill="#000000" transform="translate(0,0)"/>
<path d="" fill="#000000" transform="translate(0,0)"/>
<path d="" fill="#000000" transform="translate(0,0)"/>
<path d="" fill="#000000" transform="translate(0,0)"/>
<path d="" fill="#000000" transform="translate(0,0)"/>
<path d="" fill="#000000" transform="translate(0,0)"/>
<path d="" fill="#000000" transform="translate(0,0)"/>
<path d="" fill="#000000" transform="translate(0,0)"/>
<path d="" fill="#000000" transform="translate(0,0)"/>
<path d="" fill="#000000" transform="translate(0,0)"/>
<path d="" fill="#000000" transform="translate(0,0)"/>
<path d="" fill="#000000" transform="translate(0,0)"/>
<path d="" fill="#000000" transform="translate(0,0)"/>
<path d="" fill="#000000" transform="translate(0,0)"/>
<path d="" fill="#000000" transform="translate(0,0)"/>
</svg>
