<?xml version="1.0" encoding="UTF-8"?>
<svg version="1.1" xmlns="http://www.w3.org/2000/svg" width="210" height="271">
<path d="M0 0 C6.08653567 0.04420008 12.17307678 0.07220424 18.25971723 0.09721828 C24.19859237 0.12237397 30.13732737 0.1588945 36.07608199 0.20430398 C39.59396975 0.23099221 43.11173335 0.25305261 46.62971067 0.2633214 C50.5094831 0.27505402 54.38883929 0.31037442 58.26845121 0.34803057 C59.42134138 0.34816652 60.57423155 0.34830248 61.76205778 0.34844255 C63.33708319 0.36941751 63.33708319 0.36941751 64.94392729 0.39081621 C66.3128569 0.39967789 66.3128569 0.39967789 67.70944166 0.40871859 C70.46859857 0.87241578 71.31922906 1.61768247 73.01552153 3.79627275 C74.15340887 6.07204744 74.13894216 7.306607 74.13577604 9.83316851 C74.13783804 11.09941561 74.13783804 11.09941561 74.13994169 12.39124346 C74.13634642 13.31912676 74.13275114 14.24701006 74.12904692 15.20301104 C74.12919294 16.17866014 74.12933897 17.15430925 74.12948942 18.15952349 C74.12879088 21.3952331 74.12100119 24.63088566 74.11317778 27.86658525 C74.11131339 30.10575119 74.10988958 32.34491754 74.10889006 34.58408403 C74.10506651 40.48600176 74.09523759 46.387895 74.08418608 52.28980303 C74.07396847 58.30888332 74.06939169 64.32796755 74.06434965 70.347054 C74.0536152 82.16347103 74.03654071 93.97986986 74.01552153 105.79627275 C70.13021626 104.98163661 68.35172998 103.54694173 65.45302153 100.79627275 C61.93975245 97.53505373 58.38058929 94.41982202 54.64052153 91.42127275 C50.08450794 87.73796036 45.77474662 83.86474969 41.48988676 79.87610674 C38.32236297 76.94506421 35.0747255 74.17614081 31.70302153 71.48377275 C27.05453487 67.75018361 22.71886047 63.76439923 18.39052153 59.67127275 C9.79479532 50.40932252 9.79479532 50.40932252 -1.10947847 45.42127275 C-4.54151638 47.06268219 -6.58090813 49.0833343 -9.15244722 51.85096025 C-10.90967198 53.7168407 -12.7270512 55.37919223 -14.67197847 57.04627275 C-18.12599182 60.02594384 -21.50338835 63.08224692 -24.85947847 66.17127275 C-30.99872826 71.81857388 -37.19614223 77.39899058 -43.40635347 82.96814775 C-47.99896267 87.09272035 -52.56607244 91.24270735 -57.10947847 95.42127275 C-68.60498312 105.98431568 -68.60498312 105.98431568 -72.76963472 109.15564775 C-76.32002524 111.87509581 -77.35182802 113.41862248 -77.98447847 117.79627275 C-76.79209566 117.822054 -75.59971285 117.84783525 -74.37119722 117.87439775 C-72.80475428 117.93067714 -71.23834944 117.98802452 -69.67197847 118.04627275 C-68.88629488 118.06045244 -68.10061129 118.07463213 -67.2911191 118.0892415 C-66.15513277 118.13758135 -66.15513277 118.13758135 -64.99619722 118.18689775 C-63.95145235 118.21831865 -63.95145235 118.21831865 -62.88560152 118.25037432 C-60.13410241 119.04045419 -59.45760367 120.37967799 -57.98447847 122.79627275 C-57.59920931 125.34511614 -57.59920931 125.34511614 -57.58384371 128.25159502 C-57.56383554 129.88832926 -57.56383554 129.88832926 -57.54342318 131.55812883 C-57.54324945 133.31763117 -57.54324945 133.31763117 -57.54307222 135.112679 C-57.52326044 136.92469049 -57.52326044 136.92469049 -57.50304842 138.77330828 C-57.4621141 142.63515328 -57.4404662 146.49675966 -57.42197847 150.35877275 C-57.39821951 154.22428407 -57.37014914 158.08956966 -57.33019686 161.9549489 C-57.30577624 164.36100699 -57.29096955 166.76718519 -57.28658724 169.17336321 C-57.27130732 170.80536921 -57.27130732 170.80536921 -57.25571871 172.47034502 C-57.24930613 173.90785868 -57.24930613 173.90785868 -57.242764 175.37441301 C-57.14592332 178.05605341 -57.14592332 178.05605341 -54.98447847 180.79627275 C-52.71177877 181.24788656 -52.71177877 181.24788656 -50.02540255 181.16808367 C-48.9766646 181.17484118 -47.92792665 181.18159868 -46.84740877 181.18856096 C-45.69204119 181.18084169 -44.5366736 181.17312243 -43.34629488 181.16516924 C-42.13323168 181.16893572 -40.92016848 181.1727022 -39.67034578 181.17658281 C-37.02860128 181.18303349 -34.38747106 181.18410404 -31.74578905 181.1763978 C-27.5690146 181.16483461 -23.39251849 181.1769609 -19.2157712 181.19301653 C-8.83980163 181.2292466 1.53616196 181.23544072 11.91218901 181.23291826 C19.97201896 181.23120774 28.03162234 181.23831325 36.09138882 181.27289683 C40.24347321 181.2897059 44.39500561 181.28788346 48.54708791 181.2720741 C51.73762968 181.26492015 54.928043 181.28350843 58.11854887 181.29798174 C59.26986799 181.28823824 60.42118711 181.27849474 61.6073947 181.26845598 C62.66177229 181.27803331 63.71614988 181.28761065 64.80247831 181.2974782 C65.71798649 181.29726892 66.63349466 181.29705963 67.57674551 181.29684401 C70.78740526 181.95434423 71.98977076 183.27472175 74.01552153 185.79627275 C74.53309965 188.28235674 74.53309965 188.28235674 74.54677153 191.0423665 C74.5545059 192.54573565 74.5545059 192.54573565 74.56239653 194.07947588 C74.54692778 195.12039385 74.53145903 196.16131182 74.51552153 197.23377275 C74.53872465 198.78934893 74.53872465 198.78934893 74.56239653 200.37635088 C74.52346079 207.9542177 74.52346079 207.9542177 72.10927153 211.956429 C68.4750579 215.14992642 66.12065191 214.92275845 61.33702421 214.92757463 C60.64267244 214.92969035 59.94832066 214.93180606 59.23292792 214.93398589 C56.89465572 214.94000106 54.55643726 214.93898465 52.21815825 214.93811846 C50.54613481 214.94114904 48.8741122 214.94467021 47.20209074 214.94864702 C43.59475312 214.95654565 39.98742544 214.96168463 36.3800807 214.96493769 C30.67325383 214.970842 24.96648952 214.98737798 19.25969267 215.00627947 C17.30654291 215.01261725 15.35339312 215.01894287 13.40024328 215.02525663 C11.9327732 215.03000535 11.9327732 215.03000535 10.43565726 215.03485 C-2.85346531 215.07693167 -16.14255936 215.1098899 -29.4317441 215.12220049 C-38.39073182 215.13058512 -47.34956529 215.15309317 -56.30847585 215.19155616 C-61.04946807 215.21130792 -65.79022975 215.22372442 -70.53126574 215.21872187 C-74.99487092 215.21406972 -79.45803971 215.22791174 -83.92155695 215.25573397 C-85.55654197 215.26263696 -87.1915722 215.26278191 -88.82655573 215.2555337 C-100.52258069 215.10580595 -100.52258069 215.10580595 -110.98447847 219.79627275 C-115.02552246 224.87348186 -116.34859202 229.022433 -116.26572847 235.38221025 C-115.65545543 240.62038722 -113.28873028 244.49202095 -109.60947847 248.17127275 C-104.44820319 251.36634793 -99.79948728 252.0467129 -93.79131746 252.05455828 C-93.09002016 252.05823398 -92.38872285 252.06190969 -91.66617411 252.06569678 C-89.32859692 252.07563525 -86.99125955 252.07153441 -84.65366793 252.06751299 C-82.97294027 252.07190225 -81.29221478 252.07720513 -79.61149263 252.08335161 C-75.99874527 252.09483402 -72.38605642 252.10030971 -68.77329111 252.10123301 C-63.06329314 252.10317524 -57.35341624 252.12123495 -51.6434598 252.14199114 C-37.46562187 252.19115046 -23.28775125 252.22209999 -9.10984468 252.24329424 C1.91770913 252.25980098 12.94515879 252.28255496 23.97264272 252.32631499 C29.65193934 252.3481335 35.33103828 252.35614541 41.01037395 252.35392225 C44.53741212 252.35558494 48.06432029 252.36960761 51.59131193 252.38713503 C53.23001809 252.39274993 54.86875103 252.39320568 56.50745916 252.38819742 C58.73970946 252.3820888 60.97113328 252.3942268 63.20331144 252.41100359 C65.07899321 252.41402058 65.07899321 252.41402058 66.99256754 252.41709852 C70.01552153 252.79627275 70.01552153 252.79627275 71.91003466 254.13675833 C73.69609372 256.81792159 73.52603419 258.66938269 73.01552153 261.79627275 C70.32080036 264.57055695 68.64309327 265.69820011 64.7944665 266.29963732 C63.56839717 266.30114542 62.34232784 266.30265352 61.0791049 266.30420732 C60.05021638 266.31356727 60.05021638 266.31356727 59.00054222 266.3231163 C56.70822645 266.33903662 54.41697554 266.32644648 52.12465239 266.31385088 C50.47837534 266.31927282 48.83210314 266.32639588 47.18584013 266.33509111 C42.7163438 266.353329 38.24721681 266.34625243 33.77771401 266.33357477 C29.09212636 266.32343758 24.40657004 266.33284356 19.72098112 266.33911943 C11.84490121 266.34639878 3.96897125 266.33680588 -3.9070859 266.31775713 C-12.99055775 266.29604069 -22.07366972 266.30300043 -31.15713269 266.32506275 C-38.96885252 266.34327187 -46.78046456 266.34574664 -54.59219879 266.33530807 C-59.25167009 266.32909653 -63.9109729 266.32817163 -68.57043314 266.34145403 C-72.95939438 266.35309042 -77.34789706 266.34484605 -81.73680925 266.321877 C-83.33948493 266.31662891 -84.94219981 266.31803605 -86.54485941 266.32692766 C-98.4358912 266.38676693 -110.96046949 265.51948143 -119.98447847 256.79627275 C-126.75040649 249.34092553 -129.44734227 241.79534543 -129.37215853 231.85318804 C-129.37754407 230.9876952 -129.3829296 230.12220236 -129.38847834 229.23048246 C-129.40271305 226.34878215 -129.39566529 223.46754411 -129.38853121 220.58582354 C-129.39423714 218.51222157 -129.40120227 216.43862275 -129.40932894 214.36502886 C-129.4272514 208.74513027 -129.42609354 203.1253879 -129.42038655 197.50546932 C-129.41729317 192.8087287 -129.42338889 188.11201801 -129.4294253 183.41528165 C-129.44346615 172.33212959 -129.44191308 161.24905461 -129.4305234 150.16590166 C-129.4190445 138.74375245 -129.43311515 127.3218381 -129.45991987 115.89971983 C-129.48209413 106.08205694 -129.48871028 96.26446767 -129.48284346 86.44678152 C-129.47947661 80.58799275 -129.48187097 74.72935451 -129.49909449 68.87058687 C-129.51458875 63.35964049 -129.51058028 57.84904133 -129.49178934 52.33810854 C-129.48811026 50.32015597 -129.49119198 48.30217753 -129.50167513 46.28424883 C-129.5711532 31.79995108 -128.55891712 20.68356462 -117.98447847 9.79627275 C-107.75196929 1.2286508 -96.98756701 0.28204367 -84.15635347 0.09314775 C-82.47713149 0.05939342 -80.79791202 0.02551369 -79.11869478 -0.00847578 C-52.75177401 -0.4809459 -26.36877015 -0.19695633 0 0 Z " fill="#0269C1" transform="translate(132.98447847366333,2.2037272453308105)"/>
<path d="M0 0 C0.6694436 -0.00382555 1.3388872 -0.00765109 2.02861696 -0.01159257 C4.27644599 -0.02192841 6.52401986 -0.0179294 8.77186584 -0.01396179 C10.38156369 -0.01830795 11.99125946 -0.02349078 13.60095215 -0.02944946 C17.97695981 -0.04286108 22.35288122 -0.04341574 26.72890544 -0.04088616 C30.37963324 -0.03981791 34.03034348 -0.04469607 37.68106753 -0.04949158 C46.29240163 -0.06059425 54.90369211 -0.06101991 63.51502991 -0.05497742 C72.40428929 -0.0489359 81.29339046 -0.06125139 90.18262285 -0.08254749 C97.80986922 -0.1001496 105.43706517 -0.10616705 113.06433111 -0.10290974 C117.62183879 -0.10109452 122.17923362 -0.10375684 126.73672295 -0.11762428 C131.02212943 -0.13017544 135.30728885 -0.12828438 139.59269142 -0.11521339 C141.16648313 -0.11284213 142.74029208 -0.11560195 144.31406403 -0.12383652 C146.46072271 -0.13425966 148.60654559 -0.12624004 150.75317383 -0.11352539 C152.55588698 -0.113777 152.55588698 -0.113777 154.39501858 -0.1140337 C157.71815854 0.29491737 159.12906292 0.86552718 161.44007874 3.26069641 C161.87757874 6.32319641 161.87757874 6.32319641 161.44007874 9.26069641 C157.80693643 11.68279128 156.12446141 11.51409686 151.79750061 11.52139282 C151.11918434 11.52521837 150.44086807 11.52904392 149.74199677 11.53298539 C147.46419575 11.54332196 145.18664649 11.53932209 142.90882874 11.53535461 C141.27780422 11.53970069 139.64678175 11.54488349 138.01576233 11.55084229 C133.58197272 11.56425372 129.14826823 11.56480866 124.71446228 11.56227899 C121.01641907 11.56121088 117.3183932 11.56608844 113.6203537 11.57088441 C104.89879057 11.58198668 96.17727051 11.58241273 87.45570374 11.57637024 C78.44940962 11.57032659 69.44327157 11.58264972 60.43700409 11.60394031 C52.71126049 11.6215342 44.98556668 11.62756123 37.25980377 11.62430257 C32.6425248 11.62248627 28.0253572 11.62516038 23.40809631 11.63901711 C19.06770196 11.6515552 14.72755169 11.64968971 10.38716125 11.63660622 C8.79198628 11.6342322 7.19679433 11.63700448 5.60163879 11.64522934 C3.42835818 11.65562929 1.25590691 11.64765177 -0.91734314 11.63491821 C-2.13482239 11.63508595 -3.35230164 11.6352537 -4.60667419 11.63542652 C-7.55992126 11.26069641 -7.55992126 11.26069641 -9.4828949 9.9287138 C-10.55992126 8.26069641 -10.55992126 8.26069641 -10.43492126 5.19819641 C-8.77127734 -0.3868939 -5.1263879 0.00875939 0 0 Z " fill="#0469C1" transform="translate(41.55992126464844,230.7393035888672)"/>
<path d="M0 0 C6.08653567 0.04420008 12.17307678 0.07220424 18.25971723 0.09721828 C24.19859237 0.12237397 30.13732737 0.1588945 36.07608199 0.20430398 C39.59396975 0.23099221 43.11173335 0.25305261 46.62971067 0.2633214 C50.5094831 0.27505402 54.38883929 0.31037442 58.26845121 0.34803057 C59.42134138 0.34816652 60.57423155 0.34830248 61.76205778 0.34844255 C63.33708319 0.36941751 63.33708319 0.36941751 64.94392729 0.39081621 C66.3128569 0.39967789 66.3128569 0.39967789 67.70944166 0.40871859 C70.46859857 0.87241578 71.31922906 1.61768247 73.01552153 3.79627275 C74.15340887 6.07204744 74.13894216 7.306607 74.13577604 9.83316851 C74.13783804 11.09941561 74.13783804 11.09941561 74.13994169 12.39124346 C74.13634642 13.31912676 74.13275114 14.24701006 74.12904692 15.20301104 C74.12919294 16.17866014 74.12933897 17.15430925 74.12948942 18.15952349 C74.12879088 21.3952331 74.12100119 24.63088566 74.11317778 27.86658525 C74.11131339 30.10575119 74.10988958 32.34491754 74.10889006 34.58408403 C74.10506651 40.48600176 74.09523759 46.387895 74.08418608 52.28980303 C74.07396847 58.30888332 74.06939169 64.32796755 74.06434965 70.347054 C74.0536152 82.16347103 74.03654071 93.97986986 74.01552153 105.79627275 C69.92393762 104.96332382 67.95430025 103.21677529 64.89052153 100.35877275 C63.58727934 99.15414385 63.58727934 99.15414385 62.25770903 97.925179 C60.82671862 96.56648602 59.41083156 95.19158279 58.01552153 93.79627275 C61.88485315 94.36950707 64.1677421 96.18580828 67.01552153 98.79627275 C67.01552153 99.45627275 67.01552153 100.11627275 67.01552153 100.79627275 C68.66552153 101.45627275 70.31552153 102.11627275 72.01552153 102.79627275 C71.90809689 90.33118372 71.79547912 77.86615356 71.67618227 65.40117216 C71.62095563 59.61353967 71.56753597 53.82590212 71.51820707 48.03821611 C71.47055981 42.4555577 71.41821674 36.87296146 71.36258078 31.29037714 C71.34215889 29.15769096 71.32344553 27.02498773 71.30644751 24.89227152 C71.28239993 21.91123447 71.25234568 18.9303152 71.22084379 15.94934893 C71.21508833 15.06246386 71.20933287 14.17557878 71.203403 13.26181841 C71.18871977 12.04399424 71.18871977 12.04399424 71.17373991 10.80156755 C71.16728736 10.09639592 71.16083481 9.39122429 71.15418673 8.66468382 C71.0752585 6.56690618 71.0752585 6.56690618 70.01552153 3.79627275 C47.69315383 3.72619781 25.37080427 3.67329198 3.0483489 3.64083624 C-7.31630934 3.62536606 -17.68089925 3.60427362 -28.04551363 3.5699544 C-37.07910262 3.5400567 -46.11264212 3.52069885 -55.14627922 3.51400727 C-59.92971493 3.51009565 -64.71300906 3.5008996 -69.4963994 3.47908258 C-73.99924702 3.45871163 -78.50189479 3.4524402 -83.00478411 3.45694971 C-84.65675871 3.45612478 -86.30874003 3.45016273 -87.96067476 3.43865633 C-90.21841657 3.42370239 -92.47540655 3.42732931 -94.73316622 3.4355092 C-96.6274508 3.43136114 -96.6274508 3.43136114 -98.56000376 3.42712927 C-106.48643406 4.28156399 -114.07325628 10.01737885 -119.73447847 15.42127275 C-127.91065947 26.54954561 -127.70608004 38.26844235 -127.6439023 51.43592119 C-127.65236658 53.5066402 -127.66301574 55.57735124 -127.6756711 57.64804888 C-127.70370238 63.23818115 -127.70136615 68.82792818 -127.69337726 74.41810942 C-127.69024269 80.27178026 -127.71531437 86.12533044 -127.73733187 91.97895098 C-127.77471862 103.04960469 -127.7869167 114.12013558 -127.78995627 125.1908462 C-127.79465291 137.80037526 -127.82759573 150.40978173 -127.86285412 163.01925659 C-127.93471716 188.94491381 -127.971294 214.87052395 -127.98447847 240.79627275 C-128.31447847 240.79627275 -128.64447847 240.79627275 -128.98447847 240.79627275 C-129.07796568 213.32764681 -129.14847928 185.85904475 -129.19172716 158.39029169 C-129.21234263 145.63575338 -129.24044399 132.88131398 -129.28623629 120.12683916 C-129.32613493 109.00860683 -129.35191867 97.89044614 -129.36083245 86.7721442 C-129.36604202 80.88637555 -129.37826561 75.00081186 -129.4073987 69.11510897 C-129.43461541 63.57148175 -129.44291073 58.02814328 -129.4369092 52.48445559 C-129.43800663 50.45359269 -129.445923 48.42271981 -129.46130037 46.39191484 C-129.56593727 31.85603609 -128.59968316 20.72553675 -117.98447847 9.79627275 C-107.75196929 1.2286508 -96.98756701 0.28204367 -84.15635347 0.09314775 C-82.47713149 0.05939342 -80.79791202 0.02551369 -79.11869478 -0.00847578 C-52.75177401 -0.4809459 -26.36877015 -0.19695633 0 0 Z " fill="#135EA9" transform="translate(132.98447847366333,2.2037272453308105)"/>
<path d="M0 0 C0.33 0 0.66 0 1 0 C1.00146656 1.07398765 1.00293312 2.14797529 1.00444412 3.25450802 C1.04104977 29.39491356 1.10051345 55.53519108 1.18390274 81.67549038 C1.2237009 94.31678415 1.2560895 106.95801559 1.27099609 119.59936523 C1.28400851 130.61840924 1.31096291 141.63731616 1.35461307 152.65628296 C1.37723686 158.489991 1.39291011 164.32352989 1.39188385 170.15728569 C1.3911378 175.65092331 1.40906709 181.14418689 1.44116783 186.63772774 C1.44966947 188.65123921 1.45141498 190.66479261 1.44580269 192.67831421 C1.43914532 195.43440962 1.45712484 198.18932097 1.48101807 200.94529724 C1.47325765 201.73618081 1.46549723 202.52706438 1.45750165 203.34191412 C1.57618588 211.11174391 4.45664666 218.45664666 10 224 C16.44544649 228.65429083 21.91234335 231.24232566 29.97920227 231.2784729 C30.66951119 231.2842653 31.35982011 231.2900577 32.07104748 231.29602563 C34.37724673 231.31299052 36.68324542 231.31589906 38.98950195 231.31884766 C40.6453958 231.32814827 42.30128496 231.33831714 43.95716858 231.34928894 C48.44845486 231.37658804 52.93970978 231.3917381 57.43105721 231.40471697 C62.12629052 231.42034787 66.82145977 231.44713824 71.51664734 231.4727478 C80.40586453 231.51953627 89.29509377 231.55628007 98.18437117 231.58942068 C108.30525312 231.62764156 118.42607075 231.67705182 128.54689848 231.72740483 C149.36455149 231.83072571 170.18224522 231.91998564 191 232 C191 232.33 191 232.66 191 233 C186.71 233.33 182.42 233.66 178 234 C178 234.33 178 234.66 178 235 C158.51933772 235.09363014 139.03872139 235.16407048 119.5578804 235.20724869 C110.51165474 235.22783403 101.46556926 235.25587718 92.41943359 235.30175781 C84.53063411 235.34174938 76.64193621 235.36746206 68.75303817 235.37635398 C64.57967912 235.38154797 60.40661056 235.39367069 56.23334503 235.42292023 C52.2967597 235.45028462 48.36058156 235.4584031 44.42391014 235.45243073 C42.9873018 235.45352165 41.55067834 235.46134968 40.11415291 235.4768219 C28.69124925 235.59370835 16.59911187 234.35719312 8 226 C1.92924383 219.07004168 -0.30697489 213.6018093 -0.24050903 204.31242371 C-0.24221788 203.43835493 -0.24392673 202.56428615 -0.24568737 201.66373044 C-0.24898096 198.73561639 -0.23798064 195.80773161 -0.22705078 192.87963867 C-0.22648664 190.78040574 -0.22680328 188.6811724 -0.22793579 186.5819397 C-0.22851019 180.88196984 -0.21674173 175.18208395 -0.20278788 169.48213363 C-0.19029506 163.52571649 -0.18911116 157.56929748 -0.18673706 151.61286926 C-0.18051804 140.3330316 -0.16410148 129.05323265 -0.14403808 117.77341205 C-0.12169224 104.93194969 -0.11068896 92.09048549 -0.10064721 79.24900854 C-0.07973564 52.83265088 -0.04455143 26.41632761 0 0 Z " fill="#035AB8" transform="translate(5,33)"/>
<path d="M0 0 C0.6694436 -0.00382555 1.3388872 -0.00765109 2.02861696 -0.01159257 C4.27644599 -0.02192841 6.52401986 -0.0179294 8.77186584 -0.01396179 C10.38156369 -0.01830795 11.99125946 -0.02349078 13.60095215 -0.02944946 C17.97695981 -0.04286108 22.35288122 -0.04341574 26.72890544 -0.04088616 C30.37963324 -0.03981791 34.03034348 -0.04469607 37.68106753 -0.04949158 C46.29240163 -0.06059425 54.90369211 -0.06101991 63.51502991 -0.05497742 C72.40428929 -0.0489359 81.29339046 -0.06125139 90.18262285 -0.08254749 C97.80986922 -0.1001496 105.43706517 -0.10616705 113.06433111 -0.10290974 C117.62183879 -0.10109452 122.17923362 -0.10375684 126.73672295 -0.11762428 C131.02212943 -0.13017544 135.30728885 -0.12828438 139.59269142 -0.11521339 C141.16648313 -0.11284213 142.74029208 -0.11560195 144.31406403 -0.12383652 C146.46072271 -0.13425966 148.60654559 -0.12624004 150.75317383 -0.11352539 C152.55588698 -0.113777 152.55588698 -0.113777 154.39501858 -0.1140337 C157.71815854 0.29491737 159.12906292 0.86552718 161.44007874 3.26069641 C161.87757874 6.32319641 161.87757874 6.32319641 161.44007874 9.26069641 C157.80693643 11.68279128 156.12446141 11.51409686 151.79750061 11.52139282 C151.11918434 11.52521837 150.44086807 11.52904392 149.74199677 11.53298539 C147.46419575 11.54332196 145.18664649 11.53932209 142.90882874 11.53535461 C141.27780422 11.53970069 139.64678175 11.54488349 138.01576233 11.55084229 C133.58197272 11.56425372 129.14826823 11.56480866 124.71446228 11.56227899 C121.01641907 11.56121088 117.3183932 11.56608844 113.6203537 11.57088441 C104.89879057 11.58198668 96.17727051 11.58241273 87.45570374 11.57637024 C78.44940962 11.57032659 69.44327157 11.58264972 60.43700409 11.60394031 C52.71126049 11.6215342 44.98556668 11.62756123 37.25980377 11.62430257 C32.6425248 11.62248627 28.0253572 11.62516038 23.40809631 11.63901711 C19.06770196 11.6515552 14.72755169 11.64968971 10.38716125 11.63660622 C8.79198628 11.6342322 7.19679433 11.63700448 5.60163879 11.64522934 C3.42835818 11.65562929 1.25590691 11.64765177 -0.91734314 11.63491821 C-2.13482239 11.63508595 -3.35230164 11.6352537 -4.60667419 11.63542652 C-7.55992126 11.26069641 -7.55992126 11.26069641 -9.4828949 9.9287138 C-10.55992126 8.26069641 -10.55992126 8.26069641 -10.43492126 5.19819641 C-8.77127734 -0.3868939 -5.1263879 0.00875939 0 0 Z M-8.55992126 4.26069641 C-8.23950729 6.86350209 -8.23950729 6.86350209 -7.55992126 9.26069641 C13.77112566 9.43787097 35.10223412 9.60355054 56.43347645 9.75547218 C66.33750238 9.82627816 76.24147292 9.90087335 86.145401 9.98432922 C94.77569108 10.05704319 103.40600077 10.12270848 112.0364086 10.17984045 C116.60791925 10.21035115 121.17934121 10.24443814 125.75075722 10.2869606 C130.05078305 10.32684742 134.35077159 10.35733138 138.65091896 10.38051033 C140.2316044 10.39070533 141.8122717 10.4043769 143.39289474 10.42173195 C145.54640421 10.44486421 147.69962898 10.45563419 149.85324097 10.46324158 C151.05986798 10.47245951 152.266495 10.48167744 153.50968647 10.4911747 C156.63152661 10.48533006 156.63152661 10.48533006 159.44007874 8.26069641 C159.06103666 4.96993645 159.06103666 4.96993645 157.44007874 2.26069641 C155.33108172 2.15942017 153.21863353 2.12991796 151.10720825 2.12698364 C150.43806237 2.12471809 149.76891649 2.12245253 149.07949346 2.12011832 C146.8208465 2.11375112 144.56225911 2.11460941 142.30360413 2.11543274 C140.69095786 2.11244294 139.07831232 2.10904083 137.46566772 2.10525513 C133.07316695 2.09639271 128.68068563 2.09407608 124.28817677 2.09343934 C120.62742449 2.09249212 116.96667679 2.08881599 113.30592626 2.08526725 C104.6726629 2.07711419 96.03940996 2.07468379 87.40614319 2.07539368 C78.48624822 2.07599472 69.56641369 2.06543957 60.64653403 2.04965001 C53.00068312 2.03659559 45.35485201 2.03120889 37.70899004 2.03184909 C33.13700677 2.03210469 28.56507716 2.02921931 23.99310493 2.01867104 C19.69464852 2.00902522 15.39629746 2.00888654 11.09783745 2.01618767 C9.51675641 2.01723791 7.93566893 2.01484479 6.354599 2.00882721 C4.20291771 2.00116589 2.0516056 2.00571263 -0.10006714 2.01345825 C-1.30631713 2.01291348 -2.51256712 2.01236872 -3.75537014 2.01180744 C-6.69766189 1.97054879 -6.69766189 1.97054879 -8.55992126 4.26069641 Z " fill="#0F549F" transform="translate(41.55992126464844,230.7393035888672)"/>
<path d="M0 0 C0.39023881 0.4873314 0.78047762 0.9746628 1.18254185 1.47676182 C3.58960197 3.49415401 4.96243501 3.37381069 8.07933044 3.37181091 C9.12944305 3.37856842 10.17955566 3.38532593 11.26148987 3.39228821 C12.98914833 3.3807093 12.98914833 3.3807093 14.75170898 3.36889648 C16.57152283 3.3745462 16.57152283 3.3745462 18.42810059 3.38031006 C21.06709987 3.38675515 23.70548309 3.38783928 26.34441948 3.38012505 C30.5170733 3.36854906 34.68944911 3.38069852 38.86207581 3.39674377 C49.22635217 3.43295007 59.59062222 3.43916728 69.95495605 3.43664551 C78.00891333 3.4349349 86.06264389 3.44203835 94.11653763 3.47662407 C98.26444137 3.49343009 102.41179254 3.49161365 106.55969417 3.47580135 C109.74614981 3.46864773 112.9324768 3.4872351 116.11889648 3.50170898 C117.26864456 3.49196548 118.41839264 3.48222198 119.60298157 3.47218323 C121.18238022 3.48654922 121.18238022 3.48654922 122.79368591 3.50120544 C123.70789527 3.50099616 124.62210463 3.50078688 125.5640173 3.50057125 C128.77257616 4.1583947 129.97520813 5.48026356 132 8 C132.51757812 10.48608398 132.51757812 10.48608398 132.53125 13.24609375 C132.53898437 14.74946289 132.53898437 14.74946289 132.546875 16.28320312 C132.53140625 17.32412109 132.5159375 18.36503906 132.5 19.4375 C132.52320313 20.99307617 132.52320313 20.99307617 132.546875 22.58007812 C132.50793927 30.15794494 132.50793927 30.15794494 130.09375 34.16015625 C126.44411622 37.36720385 124.07213669 37.1237717 119.26766968 37.12025452 C118.56767337 37.12110894 117.86767707 37.12196337 117.14646876 37.12284368 C114.78951473 37.12449717 112.43263112 37.11897926 110.07568359 37.11352539 C108.39068097 37.11324346 106.70567822 37.11340136 105.02067566 37.1139679 C100.43621887 37.11425566 95.85178806 37.10836233 91.26733732 37.10139394 C86.48003488 37.0951569 81.6927319 37.09455632 76.90542603 37.09336853 C67.83545764 37.09025625 58.76550126 37.08204425 49.69553816 37.07201904 C39.37162696 37.0608547 29.0477152 37.05534664 18.72379947 37.05032361 C-2.51747373 37.03986156 -23.75873611 37.02226411 -45 37 C-45 36.34 -45 35.68 -45 35 C-44.12663089 34.99576806 -43.25326178 34.99153612 -42.35342693 34.98717594 C-21.12215172 34.88396172 0.10908977 34.77533788 21.34030628 34.66066074 C31.60747444 34.60533527 41.87464607 34.55185436 52.1418457 34.50268555 C61.08862949 34.45983545 70.03538776 34.41355535 78.98213214 34.36312145 C83.72124759 34.33652719 88.460358 34.31167425 93.19950294 34.29092598 C97.65717644 34.27135589 102.11480141 34.24721094 106.57243156 34.21950912 C108.21113326 34.21014067 109.84984562 34.20246465 111.48856354 34.19658089 C113.72088882 34.18831622 115.9530964 34.17403853 118.18537903 34.15821838 C119.43625211 34.15176583 120.68712519 34.14531328 121.97590351 34.1386652 C125.04783904 34.13540983 125.04783904 34.13540983 128 33 C130.00149936 28.99700128 129.18485209 23.90083269 129.1875 19.5 C129.19974609 18.42878906 129.21199219 17.35757813 129.22460938 16.25390625 C129.22654297 15.23167969 129.22847656 14.20945313 129.23046875 13.15625 C129.23457764 12.21587891 129.23868652 11.27550781 129.24291992 10.30664062 C129.2239714 7.8045316 129.2239714 7.8045316 127 6 C124.73404154 5.71010254 124.73404154 5.71010254 122.07215881 5.77967834 C121.03038986 5.7812645 119.98862091 5.78285065 118.9152832 5.78448486 C117.19390137 5.80234039 117.19390137 5.80234039 115.43774414 5.82055664 C114.23282822 5.82508347 113.02791229 5.82961029 111.78648376 5.83427429 C109.16284354 5.84525727 106.53949869 5.85983442 103.91594124 5.88023567 C99.76896679 5.91199772 95.62203096 5.92753108 91.47496033 5.94029236 C81.17359634 5.97440929 70.87233658 6.02705738 60.57110596 6.0894165 C52.5677514 6.13783937 44.56449118 6.17993975 36.56101125 6.20092481 C32.43708998 6.21246298 28.3135583 6.23790384 24.1897794 6.27367222 C21.02377336 6.29734038 17.85773013 6.30155809 14.69165039 6.30883789 C13.54608673 6.32276581 12.40052307 6.33669373 11.22024536 6.3510437 C9.6533622 6.34919319 9.6533622 6.34919319 8.05482483 6.3473053 C7.14576921 6.35266831 6.23671358 6.35803133 5.30011082 6.36355686 C3 6 3 6 1.18407345 4.66579342 C0 3 0 3 0 0 Z " fill="#185D9F" transform="translate(75,180)"/>
<path d="M0 0 C0.33 0.66 0.66 1.32 1 2 C0.67 2.99 0.34 3.98 0 5 C-0.78547614 11.52846562 0.22608848 16.57884371 4 22 C9.27317338 27.27317338 14.93022031 28.24880168 22.19316101 28.25828552 C23.24510697 28.26379908 23.24510697 28.26379908 24.31830436 28.26942402 C26.65588155 28.2793625 28.99321892 28.27526165 31.33081055 28.27124023 C33.01153821 28.27562949 34.69226369 28.28093238 36.37298584 28.28707886 C39.9857332 28.29856126 43.59842205 28.30403696 47.21118736 28.30496025 C52.92118534 28.30690248 58.63106224 28.3249622 64.34101868 28.34571838 C78.5188566 28.39487771 92.69672723 28.42582723 106.87463379 28.44702148 C117.9021876 28.46352823 128.92963726 28.48628221 139.95712119 28.53004223 C145.63641781 28.55186074 151.31551676 28.55987265 156.99485242 28.55764949 C160.52189059 28.55931219 164.04879876 28.57333486 167.57579041 28.59086227 C169.21449657 28.59647718 170.85322951 28.59693292 172.49193764 28.59192467 C174.72418793 28.58581604 176.95561176 28.59795404 179.18778992 28.61473083 C180.43824443 28.61674216 181.68869894 28.61875349 182.97704601 28.62082577 C186 29 186 29 187.89451313 30.34048557 C189.68057219 33.02164884 189.51051266 34.87310993 189 38 C186.5 40.375 186.5 40.375 184 42 C183.34 41.34 182.68 40.68 182 40 C183.98 39.01 183.98 39.01 186 38 C186 36.02 186 34.04 186 32 C182.00360236 31.04892201 178.29828832 30.88346475 174.19525146 30.89993286 C173.52354329 30.90119513 172.85183512 30.90245741 172.15977216 30.90375793 C169.91604305 30.9091219 167.67241112 30.92164458 165.42871094 30.93408203 C163.81698246 30.9392772 162.20525235 30.94398494 160.59352112 30.94824219 C157.12536893 30.9581743 153.65724395 30.97102088 150.1891098 30.98596573 C144.70024148 31.00905825 139.2113768 31.0223418 133.72247314 31.03366089 C118.11490221 31.06706905 102.50738495 31.10865715 86.89990234 31.17138672 C78.27790304 31.20595789 69.65594363 31.22973588 61.03388238 31.24159515 C56.47453396 31.2483535 51.91535478 31.26075981 47.35607147 31.28662491 C43.06491924 31.31096825 38.77395949 31.32126897 34.4827404 31.32102966 C32.91264352 31.32344158 31.34254437 31.3309741 29.77250099 31.34415817 C11.13768211 31.49404267 11.13768211 31.49404267 4.1875 25.625 C3.1046875 24.325625 3.1046875 24.325625 2 23 C0.88625 21.7625 0.88625 21.7625 -0.25 20.5 C-3.41817887 15.97403018 -3.28999324 11.41320724 -3 6 C-1.5483871 1.5483871 -1.5483871 1.5483871 0 0 Z " fill="#0059B3" transform="translate(17,226)"/>
<path d="M0 0 C2.14492052 0.01403378 4.28984498 0.02661228 6.43477702 0.03874874 C13.9337138 0.08142816 21.43257885 0.13058455 28.93143725 0.18527126 C35.90385341 0.23591847 42.87623777 0.27092058 49.84877712 0.29920506 C55.86794641 0.32437984 61.88697808 0.36093572 67.90602893 0.40629077 C71.48791553 0.43305257 75.06967876 0.45507311 78.65165401 0.46530819 C82.6244968 0.4770576 86.59693444 0.51240227 90.56962085 0.55001736 C91.75236087 0.55015331 92.93510089 0.55028927 94.15368152 0.55042934 C95.23115649 0.56441265 96.30863147 0.57839596 97.4187572 0.592803 C98.3560545 0.59871078 99.29335179 0.60461857 100.25905204 0.61070538 C103.05640351 1.07024544 103.90682079 1.78609433 105.61820483 3.99825954 C106.75609217 6.27403423 106.74162547 7.50859379 106.73845935 10.0351553 C106.74052135 11.3014024 106.74052135 11.3014024 106.742625 12.59323025 C106.73902972 13.52111355 106.73543445 14.44899685 106.73173022 15.40499783 C106.73187625 16.38064693 106.73202228 17.35629604 106.73217273 18.36151028 C106.73147419 21.59721989 106.7236845 24.83287245 106.71586108 28.06857204 C106.7139967 30.30773798 106.71257289 32.54690433 106.71157336 34.78607082 C106.70774982 40.68798855 106.6979209 46.58988179 106.68686938 52.49178982 C106.67665178 58.51087011 106.67207499 64.52995434 106.66703296 70.54904079 C106.6562985 82.36545782 106.63922401 94.18185665 106.61820483 105.99825954 C102.52662093 105.16531061 100.55698355 103.41876208 97.49320483 100.56075954 C96.18996264 99.35613064 96.18996264 99.35613064 94.86039233 98.12716579 C93.42940192 96.76847281 92.01351487 95.39356958 90.61820483 93.99825954 C94.48753646 94.57149386 96.7704254 96.38779507 99.61820483 98.99825954 C99.61820483 99.65825954 99.61820483 100.31825954 99.61820483 100.99825954 C101.26820483 101.65825954 102.91820483 102.31825954 104.61820483 102.99825954 C104.51078019 90.53317051 104.39816243 78.06814035 104.27886558 65.60315895 C104.22363894 59.81552646 104.17021928 54.02788891 104.12089038 48.2402029 C104.07324311 42.65754449 104.02090005 37.07494825 103.96526408 31.49236393 C103.9448422 29.35967775 103.92612884 27.22697452 103.90913081 25.09425831 C103.88508324 22.11322126 103.85502899 19.13230199 103.8235271 16.15133572 C103.81777164 15.26445065 103.81201617 14.37756557 103.8060863 13.4638052 C103.79140307 12.24598103 103.79140307 12.24598103 103.77642322 11.00355434 C103.76997066 10.29838271 103.76351811 9.59321108 103.75687003 8.86667061 C103.6779418 6.76889297 103.6779418 6.76889297 102.61820483 3.99825954 C99.38970005 2.92209128 97.03528307 2.86017279 93.63878894 2.84004116 C92.38937015 2.83025234 91.13995135 2.82046352 89.85267138 2.81037807 C88.46567836 2.8044739 87.07868493 2.79866345 85.69169116 2.79293728 C84.23313629 2.78335849 82.7745842 2.77334841 81.31603503 2.7629385 C77.35354689 2.73588341 73.39104682 2.71487711 69.42851734 2.69493651 C65.28849256 2.6730807 61.14850453 2.64569003 57.0085094 2.61888027 C49.16753425 2.56894792 41.32653871 2.5240111 33.48552364 2.48085791 C24.55936024 2.43149018 15.63323373 2.37657032 6.70710599 2.32117832 C-11.65582682 2.20734993 -30.01879443 2.10051275 -48.38179517 1.99825954 C-48.38179517 1.66825954 -48.38179517 1.33825954 -48.38179517 0.99825954 C-32.25177145 -0.0728076 -16.15826986 -0.10758484 0 0 Z " fill="#1E5C9B" transform="translate(100.38179516792297,2.0017404556274414)"/>
<path d="M0 0 C0.73734375 0.00773437 1.4746875 0.01546875 2.234375 0.0234375 C3.34039062 0.01183594 3.34039062 0.01183594 4.46875 0 C9.9810554 0.0201179 9.9810554 0.0201179 12.234375 2.2734375 C12.40608403 5.00040973 12.4668318 7.61250218 12.421875 10.3359375 C12.42123047 11.08166016 12.42058594 11.82738281 12.41992188 12.59570312 C12.37465659 18.13315591 12.37465659 18.13315591 11.234375 19.2734375 C9.90393875 19.3718096 8.56844156 19.40422342 7.234375 19.40625 C6.43 19.40753906 5.625625 19.40882813 4.796875 19.41015625 C3.95125 19.40628906 3.105625 19.40242188 2.234375 19.3984375 C1.38875 19.40230469 0.543125 19.40617187 -0.328125 19.41015625 C-1.1325 19.40886719 -1.936875 19.40757812 -2.765625 19.40625 C-3.508125 19.40512207 -4.250625 19.40399414 -5.015625 19.40283203 C-6.765625 19.2734375 -6.765625 19.2734375 -7.765625 18.2734375 C-7.89220722 15.61521093 -7.95082714 12.99456326 -7.953125 10.3359375 C-7.96537109 9.59408203 -7.97761719 8.85222656 -7.99023438 8.08789062 C-7.99550978 6.14830121 -7.88751402 4.2092004 -7.765625 2.2734375 C-5.20613501 -0.28605249 -3.49355305 0.01275019 0 0 Z " fill="#046AC0" transform="translate(119.765625,122.7265625)"/>
<path d="M0 0 C0.74886475 0.00523682 1.49772949 0.01047363 2.26928711 0.01586914 C3.36188843 0.01961548 3.36188843 0.01961548 4.4765625 0.0234375 C5.40718506 0.0325415 6.33780762 0.04164551 7.29663086 0.05102539 C11.72069336 0.08196289 11.72069336 0.08196289 16.23413086 0.11352539 C16.23413086 6.38352539 16.23413086 12.65352539 16.23413086 19.11352539 C13.28475586 19.13415039 10.33538086 19.15477539 7.29663086 19.17602539 C5.90069702 19.1896814 5.90069702 19.1896814 4.4765625 19.20361328 C3.38396118 19.20735962 3.38396118 19.20735962 2.26928711 19.21118164 C1.52042236 19.21641846 0.77155762 19.22165527 0 19.22705078 C-1.76586914 19.11352539 -1.76586914 19.11352539 -2.76586914 18.11352539 C-2.86573889 15.27017491 -2.90464795 12.45655376 -2.89086914 9.61352539 C-2.89473633 8.8155957 -2.89860352 8.01766602 -2.90258789 7.19555664 C-2.89068684 0.18583843 -2.89068684 0.18583843 0 0 Z " fill="#0469C0" transform="translate(114.765869140625,99.886474609375)"/>
<path d="M0 0 C0.79792969 0.00386719 1.59585938 0.00773437 2.41796875 0.01171875 C3.21589844 0.00785156 4.01382813 0.00398438 4.8359375 0 C10.79136108 0.01011108 10.79136108 0.01011108 11.91796875 1.13671875 C12.0178385 3.98006923 12.05674756 6.79369038 12.04296875 9.63671875 C12.04876953 10.83361328 12.04876953 10.83361328 12.0546875 12.0546875 C12.04457642 18.01011108 12.04457642 18.01011108 10.91796875 19.13671875 C9.57529462 19.22303749 8.22822553 19.24378348 6.8828125 19.234375 C6.07392578 19.23115234 5.26503906 19.22792969 4.43164062 19.22460938 C3.58150391 19.21623047 2.73136719 19.20785156 1.85546875 19.19921875 C1.00146484 19.19470703 0.14746094 19.19019531 -0.73242188 19.18554688 C-2.84898788 19.17372248 -4.9655181 19.15578644 -7.08203125 19.13671875 C-7.10887112 16.15749282 -7.12879162 13.1785058 -7.14453125 10.19921875 C-7.15291016 9.34908203 -7.16128906 8.49894531 -7.16992188 7.62304688 C-7.17314453 6.81416016 -7.17636719 6.00527344 -7.1796875 5.171875 C-7.18492432 4.42301025 -7.19016113 3.67414551 -7.19555664 2.90258789 C-6.9282961 -1.25460667 -3.35429281 0.00569489 0 0 Z " fill="#0468C0" transform="translate(143.08203125,122.86328125)"/>
<path d="M0 0 C5.94 0 11.88 0 18 0 C19.58696844 3.17393689 19.1431447 6.58174205 19.125 10.0625 C19.13080078 11.18108398 19.13080078 11.18108398 19.13671875 12.32226562 C19.12663501 17.87336499 19.12663501 17.87336499 18 19 C16.65732587 19.08631874 15.31025678 19.10706473 13.96484375 19.09765625 C12.87224243 19.09390991 12.87224243 19.09390991 11.75756836 19.09008789 C10.8269458 19.08098389 9.89632324 19.07187988 8.9375 19.0625 C4.5134375 19.0315625 4.5134375 19.0315625 0 19 C0 12.73 0 6.46 0 0 Z " fill="#0467C0" transform="translate(136,100)"/>
<path d="M0 0 C0.33 0 0.66 0 1 0 C1 31.02 1 62.04 1 94 C-3.9264712 92.02941152 -5.3997259 90.6002741 -9 87 C-9.93585938 86.54753906 -10.87171875 86.09507813 -11.8359375 85.62890625 C-15.19802322 83.89805471 -17.45686659 81.97757042 -20.1875 79.375 C-23.80099669 76.00013045 -27.44781016 72.77127168 -31.3125 69.6875 C-38.19524661 64.14140273 -44.57797966 58.06576228 -51 52 C-45.49008546 52 -41.30016154 56.7323425 -37.5 60.4375 C-36.2625 61.7059375 -36.2625 61.7059375 -35 63 C-31.75397255 65.92833114 -28.44057483 68.77922422 -25.10546875 71.60546875 C-21.57210548 74.59997488 -18.27754521 77.72245479 -15 81 C-11.7063482 83.19576787 -10.81015416 83.36287182 -7 83 C-5.33066942 82.3400321 -3.6635479 81.67441131 -2 81 C-1.01 81.495 -1.01 81.495 0 82 C0 54.94 0 27.88 0 0 Z " fill="#0366BE" transform="translate(204,11)"/>
<path d="M0 0 C0.33 0.66 0.66 1.32 1 2 C0.67 2.99 0.34 3.98 0 5 C-0.78547614 11.52846562 0.22608848 16.57884371 4 22 C8.82167502 26.82167502 14.14426589 28.24102942 20.84664917 28.2784729 C21.99080795 28.28963638 23.13496674 28.30079987 24.313797 28.31230164 C25.55457504 28.31446182 26.79535309 28.31662201 28.07373047 28.31884766 C30.05014275 28.33391609 30.05014275 28.33391609 32.06648254 28.34928894 C35.66723981 28.37652087 39.2679581 28.39171805 42.8687911 28.40471697 C46.63645984 28.4203774 50.40404935 28.4471583 54.17166138 28.4727478 C61.3006659 28.51948412 68.42968542 28.55625308 75.55876458 28.58942068 C83.67729888 28.62767849 91.7957535 28.67707904 99.91422057 28.72740483 C116.6094231 28.8306481 133.30466989 28.91993316 150 29 C150 29.33 150 29.66 150 30 C132.0148827 30.11691597 114.02986433 30.2050285 96.04444885 30.25906086 C87.69307739 30.28481836 79.34194235 30.31992164 70.99072266 30.37719727 C63.7099097 30.42710776 56.42926801 30.45930886 49.14828873 30.47044247 C45.29466799 30.47694841 41.44153712 30.49218704 37.58807373 30.52865028 C33.9567551 30.56273127 30.32612547 30.57302901 26.69466209 30.56553841 C24.73517924 30.56755769 22.77577048 30.59438945 20.81648254 30.62210083 C13.63740573 30.5803038 8.44084063 29.94876013 3 25 C-2.30929351 19.02759719 -3.42874791 14.00329436 -3 6 C-1.5483871 1.5483871 -1.5483871 1.5483871 0 0 Z " fill="#0C6BBC" transform="translate(17,226)"/>
<path d="M0 0 C0.99 0.33 1.98 0.66 3 1 C2.195625 1.556875 1.39125 2.11375 0.5625 2.6875 C-2.31569762 5.28489785 -2.4674707 6.30902107 -3 10 C-1.80761719 10.02578125 -0.61523438 10.0515625 0.61328125 10.078125 C2.1797242 10.13440439 3.74612903 10.19175177 5.3125 10.25 C6.09818359 10.26417969 6.88386719 10.27835938 7.69335938 10.29296875 C8.8293457 10.34130859 8.8293457 10.34130859 9.98828125 10.390625 C10.68477783 10.41157227 11.38127441 10.43251953 12.09887695 10.45410156 C14.85265515 11.24483587 15.52979046 12.5786139 17 15 C17.36076355 17.56903076 17.36076355 17.56903076 17.34057617 20.50292969 C17.34034958 21.60376892 17.34012299 22.70460815 17.33988953 23.83880615 C17.32440567 25.02121887 17.30892181 26.20363159 17.29296875 27.421875 C17.28872391 28.63699768 17.28447906 29.85212036 17.28010559 31.10406494 C17.26330876 34.98626839 17.22565338 38.86795336 17.1875 42.75 C17.17245452 45.38150292 17.15876588 48.01301398 17.14648438 50.64453125 C17.11340185 57.09653117 17.06319179 63.54822854 17 70 C16.34 70 15.68 70 15 70 C14.98969254 69.31317642 14.97938507 68.62635284 14.96876526 67.91871643 C14.86094405 60.79784143 14.74632717 53.67709926 14.62768555 46.55639648 C14.5842582 43.89561735 14.5425891 41.23480893 14.50268555 38.57397461 C14.44517128 34.75886185 14.38142332 30.94389758 14.31640625 27.12890625 C14.29969376 25.93100967 14.28298126 24.7331131 14.26576233 23.49891663 C14.24581711 22.3978508 14.22587189 21.29678497 14.20532227 20.16235352 C14.18977798 19.18750504 14.1742337 18.21265656 14.15821838 17.20826721 C14.24406945 15.02581432 14.24406945 15.02581432 13 14 C9.47429709 13.75370251 5.94943168 13.61562529 2.41796875 13.4765625 C-1.08032768 12.98880003 -2.55009814 12.48610731 -5 10 C-5.5625 7.625 -5.5625 7.625 -5 5 C-2.5 2.1875 -2.5 2.1875 0 0 Z " fill="#115096" transform="translate(58,110)"/>
<path d="M0 0 C2.62527189 -0.05382106 5.24944713 -0.09358313 7.875 -0.125 C8.62136719 -0.14175781 9.36773437 -0.15851563 10.13671875 -0.17578125 C12.09194461 -0.1933959 14.04742021 -0.10320189 16 0 C18 2 18 2 18.23046875 5.66015625 C18.22647733 7.12766864 18.21172158 8.59518209 18.1875 10.0625 C18.18685547 10.80822266 18.18621094 11.55394531 18.18554688 12.32226562 C18.14028159 17.85971841 18.14028159 17.85971841 17 19 C15.66956375 19.0983721 14.33406656 19.13078592 13 19.1328125 C12.195625 19.13410156 11.39125 19.13539063 10.5625 19.13671875 C9.716875 19.13285156 8.87125 19.12898438 8 19.125 C7.154375 19.12886719 6.30875 19.13273437 5.4375 19.13671875 C4.633125 19.13542969 3.82875 19.13414062 3 19.1328125 C2.2575 19.13168457 1.515 19.13055664 0.75 19.12939453 C-1 19 -1 19 -2 18 C-2.07319621 15.30345146 -2.09242537 12.63308542 -2.0625 9.9375 C-2.05798828 9.17888672 -2.05347656 8.42027344 -2.04882812 7.63867188 C-2.0370068 5.75908129 -2.01907078 3.87953101 -2 2 C-1.67 2 -1.34 2 -1 2 C-0.67 6.62 -0.34 11.24 0 16 C4.95 16.33 9.9 16.66 15 17 C15.020625 15.081875 15.04125 13.16375 15.0625 11.1875 C15.07410156 10.10855469 15.08570313 9.02960938 15.09765625 7.91796875 C15.13624766 4.93487831 15.13624766 4.93487831 14 2 C9.38 2 4.76 2 0 2 C0 1.34 0 0.68 0 0 Z " fill="#105CA8" transform="translate(114,123)"/>
<path d="M0 0 C0.495 0.99 0.495 0.99 1 2 C-0.175625 2.020625 -1.35125 2.04125 -2.5625 2.0625 C-7.22300133 2.64403883 -9.17511358 4.65422721 -12.23828125 8.0546875 C-13.95709042 9.9526187 -15.74141412 11.58880504 -17.6875 13.25 C-21.14151334 16.22967109 -24.51890988 19.28597416 -27.875 22.375 C-32.40386041 26.54095502 -36.95329622 30.68171167 -41.5390625 34.78515625 C-43.29425102 36.36482592 -45.0378301 37.95743481 -46.7734375 39.55859375 C-47.67320313 40.38488281 -48.57296875 41.21117187 -49.5 42.0625 C-50.3146875 42.81660156 -51.129375 43.57070312 -51.96875 44.34765625 C-54 46 -54 46 -56 46 C-54.6082886 42.68130359 -53.13354851 41.09600576 -50.1875 39.0625 C-45.9191064 35.9982102 -42.41871359 32.49978294 -38.8125 28.6875 C-37 27 -37 27 -35 27 C-33.79371992 24.66785852 -32.8345262 22.50357861 -32 20 C-31.28585938 19.72671875 -30.57171875 19.4534375 -29.8359375 19.171875 C-26.00253698 17.5878252 -23.58107649 15.10312855 -20.625 12.25 C-19.46908489 11.16630934 -18.3128382 10.08297226 -17.15625 9 C-15.36732837 7.3078906 -13.59776701 5.60359647 -11.84375 3.875 C-7.91539366 0.16091764 -5.38038519 -0.65882268 0 0 Z " fill="#11569C" transform="translate(136,46)"/>
<path d="M0 0 C0.74886475 0.00523682 1.49772949 0.01047363 2.26928711 0.01586914 C3.36188843 0.01961548 3.36188843 0.01961548 4.4765625 0.0234375 C5.40718506 0.0325415 6.33780762 0.04164551 7.29663086 0.05102539 C11.72069336 0.08196289 11.72069336 0.08196289 16.23413086 0.11352539 C16.23413086 6.38352539 16.23413086 12.65352539 16.23413086 19.11352539 C13.28475586 19.13415039 10.33538086 19.15477539 7.29663086 19.17602539 C5.90069702 19.1896814 5.90069702 19.1896814 4.4765625 19.20361328 C3.38396118 19.20735962 3.38396118 19.20735962 2.26928711 19.21118164 C1.52042236 19.21641846 0.77155762 19.22165527 0 19.22705078 C-1.76586914 19.11352539 -1.76586914 19.11352539 -2.76586914 18.11352539 C-2.86573889 15.27017491 -2.90464795 12.45655376 -2.89086914 9.61352539 C-2.89473633 8.8155957 -2.89860352 8.01766602 -2.90258789 7.19555664 C-2.89068684 0.18583843 -2.89068684 0.18583843 0 0 Z M-1.76586914 2.11352539 C-1.76586914 7.06352539 -1.76586914 12.01352539 -1.76586914 17.11352539 C3.51413086 17.11352539 8.79413086 17.11352539 14.23413086 17.11352539 C14.23413086 12.16352539 14.23413086 7.21352539 14.23413086 2.11352539 C8.95413086 2.11352539 3.67413086 2.11352539 -1.76586914 2.11352539 Z " fill="#13549B" transform="translate(114.765869140625,99.886474609375)"/>
<path d="M0 0 C5.94 0 11.88 0 18 0 C19.58696844 3.17393689 19.1431447 6.58174205 19.125 10.0625 C19.13080078 11.18108398 19.13080078 11.18108398 19.13671875 12.32226562 C19.12663501 17.87336499 19.12663501 17.87336499 18 19 C16.65732587 19.08631874 15.31025678 19.10706473 13.96484375 19.09765625 C12.87224243 19.09390991 12.87224243 19.09390991 11.75756836 19.09008789 C10.8269458 19.08098389 9.89632324 19.07187988 8.9375 19.0625 C4.5134375 19.0315625 4.5134375 19.0315625 0 19 C0 12.73 0 6.46 0 0 Z M1 1 C1 6.28 1 11.56 1 17 C6.28 17 11.56 17 17 17 C17 12.05 17 7.1 17 2 C11.83608171 0.2786939 6.40708764 0.94646448 1 1 Z " fill="#155296" transform="translate(136,100)"/>
<path d="M0 0 C0.79792969 0.00386719 1.59585938 0.00773437 2.41796875 0.01171875 C3.21589844 0.00785156 4.01382813 0.00398438 4.8359375 0 C10.79136108 0.01011108 10.79136108 0.01011108 11.91796875 1.13671875 C12.0178385 3.98006923 12.05674756 6.79369038 12.04296875 9.63671875 C12.04876953 10.83361328 12.04876953 10.83361328 12.0546875 12.0546875 C12.04457642 18.01011108 12.04457642 18.01011108 10.91796875 19.13671875 C9.57529462 19.22303749 8.22822553 19.24378348 6.8828125 19.234375 C6.07392578 19.23115234 5.26503906 19.22792969 4.43164062 19.22460938 C3.58150391 19.21623047 2.73136719 19.20785156 1.85546875 19.19921875 C1.00146484 19.19470703 0.14746094 19.19019531 -0.73242188 19.18554688 C-2.84898788 19.17372248 -4.9655181 19.15578644 -7.08203125 19.13671875 C-7.10887112 16.15749282 -7.12879162 13.1785058 -7.14453125 10.19921875 C-7.15291016 9.34908203 -7.16128906 8.49894531 -7.16992188 7.62304688 C-7.17314453 6.81416016 -7.17636719 6.00527344 -7.1796875 5.171875 C-7.18492432 4.42301025 -7.19016113 3.67414551 -7.19555664 2.90258789 C-6.9282961 -1.25460667 -3.35429281 0.00569489 0 0 Z M-6.08203125 2.13671875 C-6.08203125 7.41671875 -6.08203125 12.69671875 -6.08203125 18.13671875 C-0.80203125 18.13671875 4.47796875 18.13671875 9.91796875 18.13671875 C9.91796875 12.85671875 9.91796875 7.57671875 9.91796875 2.13671875 C4.63796875 2.13671875 -0.64203125 2.13671875 -6.08203125 2.13671875 Z " fill="#18589B" transform="translate(143.08203125,122.86328125)"/>
<path d="M0 0 C6.74594117 2.18251038 11.11386416 7.11386416 16 12 C19.24886338 14.92535368 22.55932455 17.77913895 25.89453125 20.60546875 C35.5832822 28.81663241 35.5832822 28.81663241 38 34 C32.23898884 29.93340389 27.13255426 25.42587102 22.00683594 20.60766602 C18.47380364 17.30529347 14.84986941 14.20088384 11.0625 11.1875 C6.80971333 7.78029664 3.36766395 4.27784339 0 0 Z " fill="#12559A" transform="translate(153,62)"/>
<path d="M0 0 C0 0.33 0 0.66 0 1 C-1.01320312 1.10957031 -2.02640625 1.21914062 -3.0703125 1.33203125 C-4.42194461 1.49159893 -5.77350343 1.65178833 -7.125 1.8125 C-7.79015625 1.88275391 -8.4553125 1.95300781 -9.140625 2.02539062 C-18.26253383 3.14327161 -26.32062452 8.40238842 -32.8125 14.75 C-35.62372698 18.92668009 -37.32700444 23.27074997 -39 28 C-39.33 28 -39.66 28 -40 28 C-40.47741377 20.76452914 -37.47511075 16.47561211 -33 11 C-22.67979575 1.53334648 -13.69430695 -0.57147803 0 0 Z " fill="#17589F" transform="translate(46,3)"/>
<path d="M0 0 C0.33 0.66 0.66 1.32 1 2 C0.67 2.99 0.34 3.98 0 5 C-0.78571088 11.53041666 0.22794347 16.57612786 4 22 C7.55560963 25.55560963 11.38894291 27.19174232 16 29 C16 29.33 16 29.66 16 30 C9.83937936 29.50715035 5.71492898 28.08082237 1.55078125 23.35546875 C-2.71969779 17.73899345 -3.37774814 13.05129863 -3 6 C-1.5483871 1.5483871 -1.5483871 1.5483871 0 0 Z " fill="#0E55A0" transform="translate(17,226)"/>
<path d="M0 0 C0.66 0 1.32 0 2 0 C2.24234375 0.59167969 2.4846875 1.18335938 2.734375 1.79296875 C6.21257027 9.99348298 9.98707401 14.93060827 18 19 C20.9613593 20.15240494 23.94445721 21.13001907 27 22 C27 22.66 27 23.32 27 24 C18.65010288 23.30417524 12.59190429 20.34756704 7 14 C6.5565625 13.51273437 6.113125 13.02546875 5.65625 12.5234375 C2.1721796 8.57347396 0 5.32701124 0 0 Z " fill="#1755A2" transform="translate(5,243)"/>
<path d="M0 0 C5.07198888 -0.07413521 10.14366268 -0.12859451 15.21606445 -0.16479492 C16.94170627 -0.17988516 18.66730972 -0.20035975 20.39282227 -0.22631836 C22.87265488 -0.26269209 25.35198064 -0.27972359 27.83203125 -0.29296875 C28.60400345 -0.30845261 29.37597565 -0.32393646 30.17134094 -0.33988953 C35.49349673 -0.34156327 35.49349673 -0.34156327 37.97924805 1.3347168 C39.64086662 4.04552767 39.50533445 5.90482648 39 9 C36.5 11.375 36.5 11.375 34 13 C33.34 12.34 32.68 11.68 32 11 C33.32 10.34 34.64 9.68 36 9 C36 7.02 36 5.04 36 3 C32.2486535 1.82874626 28.50368388 1.77940135 24.609375 1.68359375 C23.90476135 1.66281265 23.20014771 1.64203156 22.47418213 1.62062073 C20.23288319 1.55546163 17.99147136 1.49639752 15.75 1.4375 C14.22655103 1.39428274 12.70311329 1.35066743 11.1796875 1.30664062 C7.45324409 1.19981509 3.72667506 1.09845361 0 1 C0 0.67 0 0.34 0 0 Z " fill="#0A68BB" transform="translate(167,255)"/>
<path d="M0 0 C8.89543642 -0.19865739 17.32910197 -0.33447255 26 2 C26 2.33 26 2.66 26 3 C20.72 3 15.44 3 10 3 C10 2.67 10 2.34 10 2 C6.7 1.67 3.4 1.34 0 1 C0 0.67 0 0.34 0 0 Z " fill="#0364AB" transform="translate(124,265)"/>
<path d="M0 0 C0.66 0.33 1.32 0.66 2 1 C-3.46894621 6.58288259 -9.03651266 11.94647258 -15 17 C-15.33 16.34 -15.66 15.68 -16 15 C-12.49441279 11.44314278 -8.89446761 8.03716953 -5.1875 4.6875 C-4.21167969 3.80449219 -3.23585938 2.92148438 -2.23046875 2.01171875 C-1.49441406 1.34785156 -0.75835937 0.68398437 0 0 Z " fill="#145195" transform="translate(77,93)"/>
<path d="M0 0 C0.33 0 0.66 0 1 0 C1.06058594 0.99902344 1.12117188 1.99804688 1.18359375 3.02734375 C1.26738281 4.31769531 1.35117188 5.60804688 1.4375 6.9375 C1.51871094 8.22527344 1.59992188 9.51304687 1.68359375 10.83984375 C1.64919188 13.86023957 1.64919188 13.86023957 3 15 C5.69235776 15.23678716 8.36498156 15.42198025 11.0625 15.5625 C12.20041992 15.62727539 12.20041992 15.62727539 13.36132812 15.69335938 C15.24065438 15.79973633 17.12030244 15.90039934 19 16 C19 16.33 19 16.66 19 17 C16.02077407 17.02683987 13.04178705 17.04676037 10.0625 17.0625 C8.78729492 17.07506836 8.78729492 17.07506836 7.48632812 17.08789062 C6.67744141 17.09111328 5.86855469 17.09433594 5.03515625 17.09765625 C4.2862915 17.10289307 3.53742676 17.10812988 2.76586914 17.11352539 C1 17 1 17 0 16 C-0.07319621 13.30345146 -0.09242537 10.63308542 -0.0625 7.9375 C-0.05798828 7.17888672 -0.05347656 6.42027344 -0.04882812 5.63867188 C-0.0370068 3.75908129 -0.01907078 1.87953101 0 0 Z " fill="#1E5EA2" transform="translate(112,125)"/>
<path d="M0 0 C4.95860508 0.55095612 7.41118837 4.28897209 10.625 7.75 C12.09616618 9.25659086 12.09616618 9.25659086 15 10 C15.6875 12.0625 15.6875 12.0625 16 14 C11.89610729 12.33652892 8.93707246 9.41489664 5.75 6.4375 C5.19570312 5.93025391 4.64140625 5.42300781 4.0703125 4.90039062 C2.69075248 3.6244675 1.34240103 2.31496202 0 1 C0 0.67 0 0.34 0 0 Z " fill="#12579F" transform="translate(137,48)"/>
<path d="M0 0 C2.86724686 0.57344937 3.8614515 0.8614515 6 3 C6.4375 5.875 6.4375 5.875 6 9 C3.5 11.375 3.5 11.375 1 13 C0.34 12.34 -0.32 11.68 -1 11 C0.32 10.34 1.64 9.68 3 9 C3.40749675 4.74268432 3.40749675 4.74268432 1.5 1.125 C1.005 0.75375 0.51 0.3825 0 0 Z " fill="#14549D" transform="translate(200,255)"/>
<path d="M0 0 C0.87591797 0.33064453 0.87591797 0.33064453 1.76953125 0.66796875 C-0.22090562 1.99492666 -2.22092033 3.3076354 -4.23046875 4.60546875 C-6.53932044 6.19280429 -8.37409681 7.60533326 -10.23046875 9.66796875 C-9.66253553 6.19221747 -8.5687863 4.64300509 -5.91796875 2.35546875 C-5.32371094 1.82308594 -4.72945312 1.29070312 -4.1171875 0.7421875 C-2.23046875 -0.33203125 -2.23046875 -0.33203125 0 0 Z " fill="#12539C" transform="translate(28.23046875,216.33203125)"/>
<path d="M0 0 C3.86933162 0.57323431 6.15222057 2.38953552 9 5 C9 5.66 9 6.32 9 7 C9.99 7.33 10.98 7.66 12 8 C11.67 8.66 11.34 9.32 11 10 C9.16375669 8.52444734 7.3310715 7.04446569 5.5 5.5625 C4.4790625 4.73878906 3.458125 3.91507812 2.40625 3.06640625 C1.6121875 2.38449219 0.818125 1.70257813 0 1 C0 0.67 0 0.34 0 0 Z " fill="#11539A" transform="translate(191,96)"/>
<path d="M0 0 C0.66 0.33 1.32 0.66 2 1 C-0.31 3.31 -2.62 5.62 -5 8 C-5.99 7.67 -6.98 7.34 -8 7 C-5.36 4.69 -2.72 2.38 0 0 Z " fill="#0F53A3" transform="translate(77,93)"/>
<path d="" fill="#FFFFFF" transform="translate(0,0)"/>
<path d="" fill="#FFFFFF" transform="translate(0,0)"/>
<path d="" fill="#FFFFFF" transform="translate(0,0)"/>
<path d="" fill="#FFFFFF" transform="translate(0,0)"/>
<path d="" fill="#FFFFFF" transform="translate(0,0)"/>
<path d="" fill="#FFFFFF" transform="translate(0,0)"/>
<path d="" fill="#FFFFFF" transform="translate(0,0)"/>
<path d="" fill="#FFFFFF" transform="translate(0,0)"/>
<path d="" fill="#FFFFFF" transform="translate(0,0)"/>
</svg>
